<?xml version="1.0" encoding="UTF-8" standalone="no"?>
<!-- Created with Inkscape (http://www.inkscape.org/) -->

<svg
   xmlns:dc="http://purl.org/dc/elements/1.1/"
   xmlns:cc="http://creativecommons.org/ns#"
   xmlns:rdf="http://www.w3.org/1999/02/22-rdf-syntax-ns#"
   xmlns:svg="http://www.w3.org/2000/svg"
   xmlns="http://www.w3.org/2000/svg"
   xmlns:sodipodi="http://sodipodi.sourceforge.net/DTD/sodipodi-0.dtd"
   xmlns:inkscape="http://www.inkscape.org/namespaces/inkscape"
   width="92.05442mm"
   height="64.06601mm"
   viewBox="0 0 326.17708 227.00554"
   id="svg19069"
   version="1.1"
   inkscape:version="0.91 r13725"
   sodipodi:docname="azerty2.svg">
  <defs
     id="defs19071">
    <clipPath
       clipPathUnits="userSpaceOnUse"
       id="clipPath10770">
      <path
         d="M 0,0 227,0 227,150 0,150 0,0 Z"
         id="path10772"
         inkscape:connector-curvature="0" />
    </clipPath>
  </defs>
  <sodipodi:namedview
     id="base"
     pagecolor="#ffffff"
     bordercolor="#666666"
     borderopacity="1.0"
     inkscape:pageopacity="0.0"
     inkscape:pageshadow="2"
     inkscape:zoom="0.35"
     inkscape:cx="946.65996"
     inkscape:cy="-297.92579"
     inkscape:document-units="px"
     inkscape:current-layer="layer1"
     showgrid="false"
     fit-margin-top="5"
     fit-margin-left="5"
     fit-margin-right="5"
     fit-margin-bottom="5"
     inkscape:window-width="1364"
     inkscape:window-height="728"
     inkscape:window-x="0"
     inkscape:window-y="18"
     inkscape:window-maximized="0" />
  <metadata
     id="metadata19074">
    <rdf:RDF>
      <cc:Work
         rdf:about="">
        <dc:format>image/svg+xml</dc:format>
        <dc:type
           rdf:resource="http://purl.org/dc/dcmitype/StillImage" />
        <dc:title></dc:title>
      </cc:Work>
    </rdf:RDF>
  </metadata>
  <g
     inkscape:label="Layer 1"
     inkscape:groupmode="layer"
     id="layer1"
     transform="translate(571.65996,-7.4308578)">
    <g
       transform="matrix(1.2885875,0,0,-1.2885875,-554.55601,217.17863)"
       id="g10762">
      <g
         id="g10764">
        <g
           id="g10766">
          <g
             clip-path="url(#clipPath10770)"
             id="g10768">
            <g
               transform="scale(0.1,0.1)"
               id="g10774">
              <g
                 transform="scale(10,10)"
                 id="g10776">
                <text
                   id="text10778"
                   style="font-variant:normal;font-weight:normal;font-size:10.80000019px;font-family:Times;-inkscape-font-specification:Times-Roman;writing-mode:lr-tb;fill:#000000;fill-opacity:1;fill-rule:nonzero;stroke:none"
                   transform="matrix(1,0,0,-1,107.38,78.5395)">
                  <tspan
                     id="tspan10780"
                     sodipodi:role="line"
                     y="0"
                     x="0 3.5964 8.9963999">(b)</tspan>
                </text>
              </g>
              <path
                 inkscape:connector-curvature="0"
                 id="path10782"
                 style="fill:none;stroke:#000000;stroke-width:9;stroke-linecap:butt;stroke-linejoin:miter;stroke-miterlimit:10;stroke-dasharray:none;stroke-opacity:1"
                 d="m 67.0039,1175.39 5.3984,0.61 5.4024,-0.61 16.1992,0 5.3984,0.61 5.4027,-0.61 5.398,0.61 5.402,-0.61 5.399,-0.59 27.601,0 5.399,0.59 5.398,-0.59 16.203,0 5.399,0.59 6,-0.59 16.199,0 5.402,0.59 10.797,0 5.403,-0.59 5.398,0 5.402,0.59 5.399,0.61 5.398,0 5.403,0.6 5.398,0 5.402,-0.6 6,0.6 5.399,0.6 5.398,0.6 5.403,0 5.398,-1.2 5.402,-1.21 5.399,-0.59 5.398,0 5.403,0.59 5.398,-0.59 5.402,0.59 5.399,-0.59 27,0 5.398,-0.6 5.403,0 5.398,0.6 5.402,0.59 5.399,-0.59 16.199,0 6.602,0.59 10.8,0 5.399,0.61 16.199,0 5.402,1.2 5.399,0 5.398,-0.6 5.403,0 5.398,-0.6 10.801,0 5.398,0.6 5.403,-0.6 5.398,0 5.402,-0.61 10.797,0 5.403,-0.59 5.398,0.59 5.402,0 5.399,0.61 6,-0.61 5.398,-0.59 5.403,-0.6 5.398,0 5.402,0.6 5.399,0 5.398,0.59 5.403,-0.59 5.398,0.59 5.402,0.61 33,0 5.399,0.6 5.398,0 5.403,0.6 5.398,-1.2 5.402,-1.2 5.399,0 5.398,0.59 5.403,-0.59 6,0 5.398,-0.6 5.402,0 5.399,1.19 5.398,-0.59 16.203,0 5.399,0.59 5.398,0.61 10.801,0 5.402,-0.61 16.2,0 5.398,0.61 10.801,0 5.398,-0.61 5.403,0.61 5.398,0 5.402,-0.61 5.399,0 5.398,0.61 6.602,-0.61 27,0 5.398,-0.59 10.801,0 5.402,0.59 5.399,-0.59 10.801,0 5.398,-0.6 5.402,0 5.399,0.6 49.199,0 5.402,0.59 5.399,-0.59 54,0" />
              <path
                 inkscape:connector-curvature="0"
                 id="path10784"
                 style="fill:none;stroke:#000000;stroke-width:9;stroke-linecap:butt;stroke-linejoin:miter;stroke-miterlimit:10;stroke-dasharray:none;stroke-opacity:1"
                 d="m 67.0039,1174.8 5.3984,0 5.4024,-0.6 5.3984,0.6 5.4024,0 5.3984,-0.6 16.1991,0 5.402,0.6 5.399,0.59 43.801,0 5.398,-0.59 5.402,0.59 5.399,-0.59 6,0.59 5.398,-0.59 10.801,0 5.402,0.59 5.399,-0.59 10.801,0 5.398,0.59 5.402,0 5.399,-0.59 10.801,0 5.398,0.59 5.402,0 6,-0.59 5.399,-0.6 5.398,-0.6 5.403,0 5.398,1.2 5.402,0.59 21.598,0 5.402,-0.59 10.797,0 5.403,0.59 16.199,0 5.398,0.61 5.403,-0.61 5.398,0 5.402,-0.59 5.399,-0.6 5.398,0.6 33.602,0 5.398,0.59 10.801,0 5.402,-0.59 5.399,0 5.398,0.59 5.403,0 5.398,0.61 5.402,-0.61 10.797,0 5.403,-0.59 16.199,0 5.398,0.59 5.403,0 5.398,-0.59 5.402,-0.6 5.399,-0.6 6,0.6 5.398,0.6 5.403,1.2 5.398,0 5.402,-0.61 5.399,0 5.398,0.61 5.403,-0.61 5.398,-0.59 65.402,0 5.399,0.59 5.398,-0.59 5.403,0.59 6,0.61 5.398,-0.61 5.402,0 5.399,-0.59 21.601,0 5.399,0.59 5.398,-0.59 5.403,0.59 16.199,0 5.398,-0.59 48.602,0 5.398,0.59 17.403,0 5.398,0.61 21.602,0 5.398,1.2 5.402,-1.2 5.399,0 5.398,-0.61 5.403,0 5.398,0.61 5.402,-0.61 5.399,0 5.398,0.61 5.403,-0.61 5.398,0 5.402,0.61 5.399,-0.61 5.398,0 5.403,0.61 16.8,0 5.399,-0.61 16.199,0 5.402,-0.59 21.598,0 5.402,0.59 5.399,0" />
              <path
                 inkscape:connector-curvature="0"
                 id="path10786"
                 style="fill:none;stroke:#000000;stroke-width:9;stroke-linecap:butt;stroke-linejoin:miter;stroke-miterlimit:10;stroke-dasharray:none;stroke-opacity:1"
                 d="m 67.0039,1175.39 5.3984,-0.59 5.4024,0 5.3984,0.59 5.4024,-0.59 21.5975,0 5.402,0.59 5.399,0 5.398,-0.59 5.403,0.59 6,0.61 5.398,0 5.402,-0.61 10.797,0 5.403,-0.59 5.398,0.59 5.402,-0.59 16.797,0 5.403,-0.6 10.8,0 5.399,0.6 5.398,0 5.403,-0.6 5.398,1.19 5.402,0 5.399,-0.59 21.601,0 6,-0.6 5.399,0 5.398,0.6 5.403,0 5.398,0.59 21.602,0 5.398,0.61 5.402,-0.61 5.399,0 5.398,-0.59 10.801,0 5.402,-0.6 5.399,1.19 5.398,-0.59 10.801,0 5.402,1.2 10.797,0 5.403,-0.61 5.398,-0.59 6.602,-0.6 21.597,0 5.403,0.6 5.398,1.2 10.801,0 5.398,-0.61 5.403,0 5.398,0.61 21.602,0 5.398,-0.61 10.801,0 5.398,-0.59 21.602,0 6,0.59 5.398,0.61 5.403,-0.61 5.398,0 5.402,0.61 5.399,0 5.398,-0.61 5.403,-0.59 5.398,-0.6 27.602,0 5.398,0.6 5.402,0 5.399,-0.6 16.199,0 5.402,1.19 5.399,0.61 5.398,-0.61 11.403,0 5.398,-0.59 16.199,0 5.403,-0.6 5.398,0.6 5.402,0 5.399,0.59 5.398,-0.59 27,0 5.403,0.59 5.398,0 5.402,-0.59 5.399,0.59 10.801,0 5.398,-0.59 5.402,0.59 28.2,0 5.398,-0.59 10.801,0 5.398,0.59 5.403,0.61 10.8,0 5.399,-0.61 5.398,0 5.403,0.61 10.8,0 5.399,-1.2 5.398,0.59 5.403,0 5.398,0.61 38.402,0 5.399,-0.61 21.601,0 5.399,0.61 5.398,-0.61 5.403,0 5.398,-0.59 5.402,0.59 5.399,-0.59" />
              <g
                 transform="scale(10,10)"
                 id="g10788">
                <text
                   id="text10790"
                   style="font-variant:normal;font-weight:normal;font-size:10.80000019px;font-family:Times;-inkscape-font-specification:Times-Roman;writing-mode:lr-tb;fill:#000000;fill-opacity:1;fill-rule:nonzero;stroke:none"
                   transform="matrix(1,0,0,-1,160.661,2.75977)">
                  <tspan
                     id="tspan10792"
                     sodipodi:role="line"
                     y="0"
                     x="0 4.7951999 8.3915997 11.988 17.388">error</tspan>
                </text>
              </g>
              <path
                 inkscape:connector-curvature="0"
                 id="path10794"
                 style="fill:none;stroke:#000000;stroke-width:4.5;stroke-linecap:butt;stroke-linejoin:round;stroke-miterlimit:10;stroke-dasharray:9, 18;stroke-dashoffset:18;stroke-opacity:1"
                 d="m 2199.4,798.598 -5.4,-1.203 -5.39,-0.598 -130.81,0 -5.4,0.598 -10.79,0 -5.41,-0.598 -10.8,0 -5.4,-0.602 -5.39,-1.199 -5.41,-1.199 -5.4,-1.801 -6,-1.199 -5.4,0.598 -5.4,-4.2 -5.39,3.602 -6,-9 -5.41,1.801 -5.4,0 -5.4,-3.602 -5.4,-3.601 -5.39,1.203 -5.41,-8.403 -5.4,-12 -5.4,-8.398 -5.4,22.199 -5.39,14.399 -5.41,9.601 -5.4,1.801 -60,0 -5.4,-0.602 -5.4,-3.597 -5.39,-14.403 -5.41,-32.398 -5.4,-1.801 -5.4,-10.801 -5.4,25.2 -5.39,6.601 -5.41,13.801 -5.4,10.199 -5.4,1.199 -5.4,2.403 -5.39,2.398 -5.41,4.199 -5.4,2.403 -5.4,-4.203 -5.4,0.601 -6,6 -5.39,13.801 -5.41,-8.402 -5.4,4.8 -6,7.801 -5.4,-70.199 -5.4,25.801 -5.39,36 -5.41,-12.602 -5.4,-2.398 -5.4,-0.602 -10.79,0 -5.41,-0.601 -5.4,-0.598 -16.19,0 -5.41,0.598 -5.4,3.601 -5.4,5.399 -5.4,6.601 -5.39,-6 -5.41,-4.801 -5.4,-1.199 -5.4,1.801 -5.4,4.801 -5.39,9.597 -6,3.602 -5.41,-69.602 -5.4,1.801 -5.4,80.399 -5.4,-30 -5.39,-4.797 -5.41,0.597 -5.4,-0.597 -6,-1.203 -5.4,0 -5.4,1.8 -5.39,-1.199 -5.41,-0.601 -5.4,0 -5.4,-0.598 -10.79,0 -5.41,0.598 -5.4,0.601 -5.4,2.399 -5.4,-1.2 -5.39,1.801 -5.41,6 -5.4,-26.398 -5.4,-127.203 -6,79.8 -5.4,39 -5.39,12.602 -5.41,-0.602 -5.4,7.2 -5.4,3 -5.4,3 -5.39,0.601 -5.41,1.199 -5.4,-1.199 -5.4,2.399 -5.4,-2.399 -5.39,-0.601 -21.61,0 -5.39,-0.598 -76.81,0 -5.4,0.598 -5.4,1.8 -5.39,-3 -5.41,1.801 -5.4,1.801" />
              <path
                 inkscape:connector-curvature="0"
                 id="path10796"
                 style="fill:none;stroke:#000000;stroke-width:4.5;stroke-linecap:butt;stroke-linejoin:miter;stroke-miterlimit:10;stroke-dasharray:none;stroke-opacity:1"
                 d="M 7.00391,1038 2257,1038" />
              <path
                 inkscape:connector-curvature="0"
                 id="path10798"
                 style="fill:none;stroke:#000000;stroke-width:4.5;stroke-linecap:butt;stroke-linejoin:miter;stroke-miterlimit:10;stroke-dasharray:9, 18;stroke-dashoffset:18;stroke-opacity:1"
                 d="m 2201.8,1430.39 -5.4,-18.59 -5.4,-16.8 -5.39,-15 -5.41,-12.61 -5.4,-10.79 -5.4,-9.6 -5.4,-9.61 -5.39,-7.19 -5.41,-6 -5.4,-4.81 -5.4,-4.19 -5.4,-3 -6,-2.4 -5.39,-2.41 -5.41,-0.59 -5.4,-0.6 -5.4,-0.6 -5.4,0.6 -5.39,1.19 -5.41,0.61 -5.4,1.8 -5.4,2.4 -5.4,0.6 -5.39,2.4 -5.41,1.8 -5.4,1.2 -5.4,1.19 -5.4,0.61 -5.39,1.2 -5.41,-0.6 -5.4,-1.8 -5.4,-2.41 -5.4,-3 -6,-3.59 -5.39,-4.2 -5.41,-4.8 -6,-4.8 -5.4,-4.2 -5.4,-4.8 -5.4,-3.61 -5.39,-3.59 -5.41,-3 -5.4,-1.8 -5.4,-1.8 -5.4,-1.2 -5.39,-0.61 -5.41,-0.59 -10.8,0 -5.4,0.59 -10.8,0 -5.4,-0.59 -5.4,0.59 -5.4,-0.59 -10.8,0 -5.4,0.59 -5.4,0.61 -5.4,0.6 -16.8,0 -5.4,-0.6 -5.4,-0.61 -27.6,0 -5.4,0.61 -5.4,0.6 -5.39,0.6 -5.41,0.6 -5.4,0.59 -5.4,0.61 -5.4,0.6 -5.39,0 -5.41,-0.6 -5.4,-1.2 -5.4,-1.8 -5.4,-2.4 -5.39,-2.4 -5.41,-2.4 -5.4,-1.8 -6,-1.2 -5.4,-0.6 -5.4,0.6 -5.39,1.2 -5.41,1.8 -5.4,1.2 -5.4,1.8 -5.4,1.8 -5.39,1.79 -5.41,1.21 -5.4,1.79 -5.4,1.21 -5.4,0.6 -5.39,0 -5.41,-0.6 -5.4,-0.6 -5.4,-1.2 -5.4,-1.8 -5.39,-1.2 -5.41,-1.8 -5.4,-2.4 -5.4,-1.8 -5.4,-1.8 -5.39,-1.2 -6.61,-1.2 -5.39,0 -5.41,0.6 -5.4,1.19 -5.4,1.81 -5.4,1.8 -5.39,1.8 -5.41,1.2 -5.4,1.8 -5.4,0.59 -5.4,0.61 -5.39,0 -5.41,1.2 -5.4,-0.6 -5.4,0 -5.4,-1.21 -5.39,0 -5.41,-1.19 -5.4,-1.2 -5.4,-0.61 -5.4,-1.19 -5.39,-0.6 -5.41,0 -5.4,-0.6 -16.8,0 -5.39,1.2 -5.41,0.6 -5.4,0.59 -5.4,0.61 -5.4,1.2 -5.39,1.8 -5.41,0.6 -5.4,0.6 -5.4,0.6 -6,1.2 -5.4,1.2 -5.39,1.19 -5.41,1.21 -5.4,2.4 -5.4,1.8 -5.4,2.4 -5.39,2.4 -5.41,2.4 -5.4,2.39 -5.4,2.41 -5.4,3 -5.39,3.59 -6,3.61 -5.41,4.2 -5.4,4.8 -5.4,6 -5.4,7.8 -5.39,7.8 -5.41,10.79 -5.4,10.81 -5.4,12.6 -5.4,13.8 -5.39,15.6 -5.41,16.19 -5.4,18" />
              <path
                 inkscape:connector-curvature="0"
                 id="path10800"
                 style="fill:none;stroke:#000000;stroke-width:4.5;stroke-linecap:butt;stroke-linejoin:round;stroke-miterlimit:10;stroke-dasharray:9, 18;stroke-dashoffset:18;stroke-opacity:1"
                 d="m 67.0039,497.996 173.3981,0 6,-0.601 5.403,-208.2 5.398,-62.398 5.402,46.801 6,224.398 108,0 5.399,-264.601 5.398,-6.598 5.403,0 5.398,215.398 6,55.801 103.199,0 5.403,-3 5.398,-268.199 5.402,19.199 5.399,252 70.801,0 5.398,-11.398 5.402,-249.602 5.399,-3.601 5.398,253.8 5.403,10.801 87.597,0 5.403,-8.398 5.398,-262.801 5.402,0.598 5.399,261 5.398,9.601 255.602,0" />
              <path
                 inkscape:connector-curvature="0"
                 id="path10802"
                 style="fill:none;stroke:#000000;stroke-width:4.5;stroke-linecap:butt;stroke-linejoin:round;stroke-miterlimit:10;stroke-dasharray:9, 18;stroke-dashoffset:18;stroke-opacity:1"
                 d="m 67.0039,944.996 5.3984,1.801 5.4024,0 5.3984,-0.602 5.4024,1.2 16.1995,0 5.398,0.601 5.402,0 5.399,-0.601 5.398,0.601 27.602,0 5.398,-0.601 38.403,0 5.398,-0.598 5.402,-1.199 5.399,1.199 5.398,-0.602 5.403,0.602 5.398,0.598 5.402,0 5.399,-0.598 5.398,-1.801 5.403,0 5.398,-1.801 5.402,-6 6,-28.199 5.399,5.399 5.398,25.8 5.403,4.801 5.398,1.199 5.402,-0.597 5.399,1.199 5.398,0.598 5.403,0 5.398,0.601 5.402,-0.601 5.399,0 5.398,-0.598 5.403,0 5.398,-0.602 5.402,1.2 5.399,0 5.398,-0.598 5.403,-0.602 5.398,0.602 5.402,-3.602 5.399,-52.8 5.398,-76.797 5.403,-0.602 6,100.199 6,21.602 5.398,6.598 5.402,3 5.399,1.203 5.398,-1.203 5.403,-3 5.398,-4.2 5.402,4.801 5.399,3 5.398,2.399 5.403,0.601 10.8,0 5.399,-0.601 16.199,0 5.402,-0.598 5.399,0 5.398,-1.801 5.403,-20.398 5.398,-106.203 5.402,-61.797 5.399,135.597 6,44.403 5.398,3 5.403,-5.403 5.398,7.801 5.402,4.801 5.399,-1.199 5.398,-1.801 5.403,-1.801 5.398,4.199 5.402,-0.597 6,-0.602 5.399,-0.601 5.398,-2.399 5.403,-3 5.398,-1.199 5.402,-4.801 5.399,2.399 5.398,2.402 5.403,6 5.398,0.598 5.402,1.203 5.399,2.398 38.398,0 5.403,-0.601 5.398,0.601 10.801,0 5.398,-1.199 5.403,-2.402 5.398,-3.598 5.402,-5.402 5.399,1.203 5.398,2.398 5.403,1.199 5.398,0 5.402,2.403 5.399,0.597 5.398,-1.199 5.403,0.602 5.398,3.597 5.402,-1.8 5.399,1.8 5.398,0 6.602,-0.597 5.398,1.199 5.403,0 5.398,0.598 5.402,0 5.399,0.601 5.398,0 5.403,-0.601 16.199,0 5.398,0.601 5.403,0 5.398,-0.601 5.402,0.601 108.598,0 5.402,-0.601 5.399,-1.2" />
              <path
                 inkscape:connector-curvature="0"
                 id="path10804"
                 style="fill:none;stroke:#000000;stroke-width:4.5;stroke-linecap:butt;stroke-linejoin:miter;stroke-miterlimit:10;stroke-dasharray:none;stroke-opacity:1"
                 d="M 7.00391,587.996 2257,587.996" />
              <g
                 transform="scale(10,10)"
                 id="g10806">
                <text
                   id="text10808"
                   style="font-variant:normal;font-weight:normal;font-size:10.80000019px;font-family:Times;-inkscape-font-specification:Times-Roman;writing-mode:lr-tb;fill:#000000;fill-opacity:1;fill-rule:nonzero;stroke:none"
                   transform="matrix(1,0,0,-1,42.1605,2.69961)">
                  <tspan
                     id="tspan10810"
                     sodipodi:role="line"
                     y="0"
                     x="0 5.4000001 10.8 13.8024 19.2024 24.6024">output</tspan>
                  <tspan
                     id="tspan10812"
                     sodipodi:role="line"
                     y="-31.080099"
                     x="65.219902 68.816299 73.611504">(c)</tspan>
                </text>
              </g>
              <path
                 inkscape:connector-curvature="0"
                 id="path10814"
                 style="fill:none;stroke:#000000;stroke-width:4.5;stroke-linecap:butt;stroke-linejoin:miter;stroke-miterlimit:10;stroke-dasharray:none;stroke-opacity:1"
                 d="m 7.00391,137.996 2251.79999,0 0,1350 -2251.79999,0 0,-1350 z" />
              <path
                 inkscape:connector-curvature="0"
                 id="path10816"
                 style="fill:none;stroke:#000000;stroke-width:4.5;stroke-linecap:butt;stroke-linejoin:miter;stroke-miterlimit:10;stroke-dasharray:27;stroke-dashoffset:0;stroke-opacity:1"
                 d="m 2183.2,278.395 -721.8,0 -6,-4.2 -4.79,3 -5.41,1.2 -183,0" />
              <path
                 inkscape:connector-curvature="0"
                 id="path10818"
                 style="fill:none;stroke:#0000ff;stroke-width:4.5;stroke-linecap:butt;stroke-linejoin:miter;stroke-miterlimit:10;stroke-dasharray:27;stroke-dashoffset:0;stroke-opacity:1"
                 d="m 2183.2,278.395 -366,0 -5.4,-1.2 -5.4,4.2 -5.4,1.203 -5.39,-6 -5.41,1.797 -528,0" />
              <path
                 inkscape:connector-curvature="0"
                 id="path10820"
                 style="fill:none;stroke:#00ff00;stroke-width:4.5;stroke-linecap:butt;stroke-linejoin:miter;stroke-miterlimit:10;stroke-dasharray:27;stroke-dashoffset:0;stroke-opacity:1"
                 d="m 2183.2,278.395 -921,0" />
              <path
                 inkscape:connector-curvature="0"
                 id="path10822"
                 style="fill:none;stroke:#00ffff;stroke-width:4.5;stroke-linecap:butt;stroke-linejoin:miter;stroke-miterlimit:10;stroke-dasharray:27;stroke-dashoffset:0;stroke-opacity:1"
                 d="m 2183.2,278.395 -921,0" />
              <path
                 inkscape:connector-curvature="0"
                 id="path10824"
                 style="fill:none;stroke:#ff0000;stroke-width:9;stroke-linecap:butt;stroke-linejoin:miter;stroke-miterlimit:10;stroke-dasharray:27;stroke-dashoffset:0;stroke-opacity:1"
                 d="m 2183.2,278.395 -253.8,0 -4.79,0.601 -5.41,-0.601 -96.59,0 -5.41,0.601 -5.4,1.199 -5.4,-4.8 -5.4,0 -5.39,6 -5.41,-1.797 -5.4,-0.602 -5.4,-0.601 -16.2,0 -4.8,0.601 -5.4,0.602 -5.39,-0.602 -5.41,-0.601 -33.59,0 -5.41,0.601 -5.4,-0.601 -95.4,0 -5.4,0.601 -6,0.602 -5.39,-1.203 -5.41,0 -5.4,1.203 -5.4,-0.602 -5.4,-0.601 -102.6,0 -6,1.203 -4.79,-1.203 -5.41,0 -5.4,1.203 -5.4,-1.203 -172.2,0" />
              <path
                 inkscape:connector-curvature="0"
                 id="path10826"
                 style="fill:none;stroke:#00ffff;stroke-width:9;stroke-linecap:butt;stroke-linejoin:round;stroke-miterlimit:10;stroke-dasharray:none;stroke-opacity:1"
                 d="m 2183.2,278.395 -592.2,0 -5.39,0.601 -5.41,0.602 -6,20.398 -4.8,-21.601 -307.2,0" />
              <path
                 inkscape:connector-curvature="0"
                 id="path10828"
                 style="fill:none;stroke:#000000;stroke-width:4.5;stroke-linecap:butt;stroke-linejoin:miter;stroke-miterlimit:10;stroke-dasharray:none;stroke-opacity:1"
                 d="m 67.0039,677.395 5.3984,-0.598 5.4024,0 5.3984,0.598 5.4024,-0.598 173.9995,0 6,0.598 5.399,0.601 5.398,1.199 5.403,-0.597 5.398,-1.203 5.402,0 5.399,-0.598 70.199,0 5.402,0.598 5.399,9 5.398,1.203 5.403,-4.801 6,-4.199 6,-1.801 27,0 5.398,0.598 5.402,0 5.399,-0.598 70.199,0 5.402,0.598 5.399,0.601 6,-0.601 10.801,0 5.398,-0.598 10.801,0 5.398,0.598 5.403,0 5.398,-0.598 418.801,0" />
              <path
                 inkscape:connector-curvature="0"
                 id="path10830"
                 style="fill:none;stroke:#00ff00;stroke-width:4.5;stroke-linecap:butt;stroke-linejoin:miter;stroke-miterlimit:10;stroke-dasharray:none;stroke-opacity:1"
                 d="m 67.0039,676.797 190.1991,0 5.402,0.598 6,0 5.399,0.601 5.398,-0.601 16.203,0 5.399,-0.598 70.199,0 5.402,2.398 5.399,8.403 5.398,1.797 5.403,-0.598 6,0 6,-3 5.398,-4.199 5.402,-2.403 5.399,-0.597 5.398,1.199 5.403,2.398 5.398,3 5.402,-3 5.399,-3.597 5.398,-1.801 97.801,0 5.402,0.598 5.399,0.601 5.398,0.602 5.403,-0.602 5.398,-1.199 16.801,0 5.398,0.598 10.801,0 5.402,1.203 10.797,0 5.403,-0.602 5.398,1.199 5.402,-0.597 5.399,-1.801 348,0" />
              <path
                 inkscape:connector-curvature="0"
                 id="path10832"
                 style="fill:none;stroke:#ff0000;stroke-width:4.5;stroke-linecap:butt;stroke-linejoin:miter;stroke-miterlimit:10;stroke-dasharray:none;stroke-opacity:1"
                 d="m 67.0039,676.797 168.6011,0 5.399,0.598 5.398,1.203 5.403,-0.602 5.398,1.801 5.402,3.598 6,8.402 5.399,-9.602 5.398,-5.398 222.602,0 5.398,0.598 5.403,1.8 5.398,4.2 5.402,-4.2 5.399,-1.8 6,-0.598 462,0" />
              <path
                 inkscape:connector-curvature="0"
                 id="path10834"
                 style="fill:none;stroke:#ff00ff;stroke-width:4.5;stroke-linecap:butt;stroke-linejoin:miter;stroke-miterlimit:10;stroke-dasharray:none;stroke-opacity:1"
                 d="m 67.0039,676.797 130.8011,0 5.398,0.598 5.402,0.601 5.399,-1.199 5.398,0.598 5.403,0 5.398,-0.598 32.402,0 6,0.598 10.797,0 5.403,-0.598 222.597,0 5.403,1.199 5.398,3 5.402,1.801 5.399,0.598 6,-4.797 5.398,-1.203 5.403,0 5.398,-0.598 157.801,0 5.398,0.598 5.403,1.8 5.398,1.801 5.402,3.602 5.399,-1.203 5.398,-1.797 5.403,-1.203 5.398,0 5.402,-0.598 5.399,-0.602 5.398,0 5.403,0.602 5.398,-1.801 5.402,0.602 5.399,-0.602 12,0 5.398,-0.601 5.403,0 5.398,-0.598 178.801,0" />
              <path
                 inkscape:connector-curvature="0"
                 id="path10836"
                 style="fill:none;stroke:#ffff00;stroke-width:4.5;stroke-linecap:butt;stroke-linejoin:miter;stroke-miterlimit:10;stroke-dasharray:none;stroke-opacity:1"
                 d="m 67.0039,677.395 5.3984,-0.598 141.6017,0 5.398,0.598 5.403,-0.598 135.597,0 5.403,0.598 5.398,-0.598 615,0 5.402,0.598 5.399,0" />
              <path
                 inkscape:connector-curvature="0"
                 id="path10838"
                 style="fill:none;stroke:#000000;stroke-width:4.5;stroke-linecap:butt;stroke-linejoin:miter;stroke-miterlimit:10;stroke-dasharray:27;stroke-dashoffset:0;stroke-opacity:1"
                 d="m 67.0039,677.395 5.3984,-0.598 130.8007,0 5.402,0.598 5.399,-0.598 119.398,0 5.403,0.598 5.398,0 5.402,-0.598 5.399,0 5.398,0.598 5.403,0 5.398,-0.598 136.199,0 5.403,0.598 5.398,-0.598 22.199,0 5.403,0.598 5.398,0 5.402,-0.598 10.797,0 5.403,0.598 5.398,-0.598 147,0 5.402,0.598 5.399,-0.598 103.801,0 5.398,0.598 5.402,-0.598 141,0 5.399,0.598" />
              <path
                 inkscape:connector-curvature="0"
                 id="path10840"
                 style="fill:none;stroke:#0000ff;stroke-width:4.5;stroke-linecap:butt;stroke-linejoin:miter;stroke-miterlimit:10;stroke-dasharray:27;stroke-dashoffset:0;stroke-opacity:1"
                 d="m 67.0039,676.797 190.1991,0 5.402,0.598 6,0 5.399,-0.598 108,0 5.398,0.598 5.403,0 6,1.203 6,0.597 5.398,-1.199 5.402,0 5.399,-0.601 5.398,0 5.403,-0.598 124.8,0 5.399,0.598 5.398,-0.598 5.403,0.598 10.8,0 6,0.601 5.399,0 5.398,1.801 5.403,1.801 5.398,1.199 5.402,3 5.399,-1.199 5.398,-0.602 5.403,-4.199 5.398,-1.801 5.402,-0.601 5.399,-0.598 348,0" />
              <path
                 inkscape:connector-curvature="0"
                 id="path10842"
                 style="fill:none;stroke:#00ff00;stroke-width:4.5;stroke-linecap:butt;stroke-linejoin:miter;stroke-miterlimit:10;stroke-dasharray:27;stroke-dashoffset:0;stroke-opacity:1"
                 d="m 67.0039,677.395 5.3984,-0.598 141.6017,0 5.398,0.598 5.403,-0.598 54.597,0 5.403,0.598 16.199,0 5.398,-0.598 59.403,0 5.398,0.598 5.402,0 5.399,4.8 5.398,-0.597 5.403,-2.403 6,-1.8 6,-0.598 97.199,0 5.398,0.598 5.403,0.601 5.398,0.602 5.402,1.199 5.399,3 11.398,0 5.403,4.801 5.398,-7.203 5.402,-3 5.399,-0.598 5.398,0 5.403,1.199 5.398,-1.199 130.801,0 5.398,0.598 5.403,0.601 5.398,0.602 5.402,0.597 5.399,-0.597 5.398,0 5.403,-0.602 5.398,0.602 5.402,-1.203 5.399,0.601 10.801,0 5.398,-0.601 33.602,0 5.398,-0.598 178.801,0" />
              <path
                 inkscape:connector-curvature="0"
                 id="path10844"
                 style="fill:none;stroke:#00ffff;stroke-width:4.5;stroke-linecap:butt;stroke-linejoin:miter;stroke-miterlimit:10;stroke-dasharray:27;stroke-dashoffset:0;stroke-opacity:1"
                 d="m 67.0039,676.797 168.6011,0 5.399,0.598 5.398,0 5.403,0.601 10.8,0 6,4.199 5.399,5.403 5.398,-7.203 5.403,-3.598 157.8,0 5.399,0.598 5.398,-0.598 54,0 5.403,0.598 5.398,0.601 5.402,2.399 5.399,1.203 6,-4.203 5.398,-0.598 32.403,0 5.398,0.598 5.402,0 6,0.601 5.399,0 5.398,0.602 5.403,1.199 5.398,0 5.402,0.598 5.399,-0.598 5.398,-1.801 5.403,-1.199 364.199,0" />
              <path
                 inkscape:connector-curvature="0"
                 id="path10846"
                 style="fill:none;stroke:#000000;stroke-width:4.5;stroke-linecap:butt;stroke-linejoin:miter;stroke-miterlimit:10;stroke-dasharray:none;stroke-opacity:1"
                 d="m 67.0039,226.797 930.0001,0" />
              <path
                 inkscape:connector-curvature="0"
                 id="path10848"
                 style="fill:none;stroke:#00ff00;stroke-width:4.5;stroke-linecap:butt;stroke-linejoin:miter;stroke-miterlimit:10;stroke-dasharray:none;stroke-opacity:1"
                 d="m 67.0039,226.797 309.6011,0 5.399,6.598 5.398,-6.598 609.602,0" />
              <path
                 inkscape:connector-curvature="0"
                 id="path10850"
                 style="fill:none;stroke:#ffff00;stroke-width:4.5;stroke-linecap:butt;stroke-linejoin:miter;stroke-miterlimit:10;stroke-dasharray:none;stroke-opacity:1"
                 d="m 67.0039,226.797 930.0001,0" />
              <path
                 inkscape:connector-curvature="0"
                 id="path10852"
                 style="fill:none;stroke:#000000;stroke-width:4.5;stroke-linecap:butt;stroke-linejoin:miter;stroke-miterlimit:10;stroke-dasharray:27;stroke-dashoffset:0;stroke-opacity:1"
                 d="m 67.0039,226.797 190.1991,0 5.402,0.598 6,-0.598 728.399,0" />
              <path
                 inkscape:connector-curvature="0"
                 id="path10854"
                 style="fill:none;stroke:#00ff00;stroke-width:4.5;stroke-linecap:butt;stroke-linejoin:miter;stroke-miterlimit:10;stroke-dasharray:27;stroke-dashoffset:0;stroke-opacity:1"
                 d="m 67.0039,226.797 930.0001,0" />
              <path
                 inkscape:connector-curvature="0"
                 id="path10856"
                 style="fill:none;stroke:#000000;stroke-width:4.5;stroke-linecap:butt;stroke-linejoin:miter;stroke-miterlimit:10;stroke-dasharray:none;stroke-opacity:1"
                 d="m 2201.8,1111.2 -5.4,0 -5.4,-0.6 -5.39,0.6 -5.41,0 -5.4,0.6 -5.4,-0.6 -5.4,0.6 -10.8,0 -5.4,0.59 -5.4,1.21 -5.4,-0.6 -6,-0.61 -5.39,1.21 -5.41,-1.8 -5.4,0 -5.4,1.2 -5.4,-0.61 -5.39,0 -5.41,0.61 -5.4,-1.2 -5.4,0 -5.4,1.2 -5.39,0 -5.41,-0.61 -5.4,0 -5.4,1.21 -5.4,0 -5.39,-0.6 -5.41,-0.61 -5.4,-0.59 -5.4,0.59 -16.79,0 -5.41,0.61 -6,0 -5.4,-0.61 -5.4,0.61 -48.6,0 -5.4,-0.61 -21.6,0 -5.4,-1.19 -5.4,0.6 -5.39,-1.2 -5.41,0.6 -16.2,0 -5.39,1.19 -6,-0.59 -5.41,-0.6 -5.4,0.6 -5.4,0 -5.4,-0.6 -5.39,1.19 -5.41,0 -6,0.61 -21.59,0 -5.41,-0.61 -16.2,0 -5.39,0.61 -5.41,0.6 -5.4,-0.6 -5.4,-0.61 -5.4,0.61 -16.2,0 -6,0.6 -5.4,0 -5.4,-0.6 -5.39,-0.61 -10.81,0 -5.4,0.61 -37.79,0 -5.41,0.6 -5.4,0.6 -5.4,-0.6 -5.4,-0.6 -5.39,-0.61 -5.41,-0.59 -10.8,0 -5.4,-0.6 -5.39,0.6 -6.61,0 -5.39,0.59 -5.41,0.61 -5.4,0 -5.4,-0.61 -5.4,-1.19 -5.39,0 -5.41,0.6 -5.4,0 -5.4,0.59 -10.79,0 -5.41,-0.59 -5.4,0.59 -5.4,0.61 -5.4,0 -5.39,-0.61 -5.41,0.61 -5.4,-0.61 -16.19,0 -5.41,0.61 -5.4,0.6 -5.4,0 -6,-0.6 -10.79,0 -5.41,-0.61 -5.4,0.61 -5.4,-0.61 -5.4,0 -5.39,-1.19 -5.41,0.6 -10.8,0 -6,-0.6 -10.79,0 -5.41,0.6 -16.2,0 -5.39,-0.6 -5.41,0.6 -5.4,0 -5.4,0.59 -5.4,-0.59 -27.6,0 -5.4,-0.6 -16.2,0 -5.4,0.6 -5.4,0.59 -5.39,-1.79 -5.41,1.2 -5.4,0" />
              <path
                 inkscape:connector-curvature="0"
                 id="path10858"
                 style="fill:none;stroke:#00ff00;stroke-width:4.5;stroke-linecap:butt;stroke-linejoin:miter;stroke-miterlimit:10;stroke-dasharray:none;stroke-opacity:1"
                 d="m 2201.8,1111.8 -5.4,0.59 -27,0 -5.4,-0.59 -10.8,0 -5.4,0.59 -5.4,-0.59 -11.4,0 -5.39,0.59 -10.81,0 -5.4,-0.59 -10.79,0 -5.41,-0.6 -5.4,0 -5.4,0.6 -5.4,-0.6 -16.2,0 -5.4,-0.6 -5.4,-0.6 -5.39,0 -5.41,0.6 -5.4,-0.6 -22.19,0 -5.41,0.6 -27.59,0 -5.41,0.6 -21.59,0 -5.41,-0.6 -5.4,0 -5.4,-0.6 -10.79,0 -5.41,0.6 -5.4,0 -5.4,0.6 -10.79,0 -5.41,0.6 -10.8,0 -5.4,-0.6 -5.39,0.6 -16.81,0 -5.4,0.59 -5.4,-1.19 -5.39,-0.6 -5.41,0.6 -33,0 -5.4,-0.6 -10.8,0 -5.39,0.6 -5.41,-0.6 -5.4,0.6 -5.4,0 -5.4,-1.2 -5.39,0.6 -5.41,0.6 -5.4,0.6 -11.4,0 -5.4,-0.6 -5.39,-0.6 -5.41,0.6 -27,0 -5.4,0.6 -5.4,0 -5.4,-0.6 -16.2,0 -5.4,-0.6 -5.4,-0.6 -5.39,0.6 -16.21,0 -5.4,0.6 -5.39,-0.6 -6.61,0.6 -10.8,0 -5.4,0.6 -5.4,-0.6 -5.4,0 -5.39,-0.6 -5.41,0 -5.4,0.6 -5.4,-0.6 -5.4,0 -5.39,0.6 -5.41,0.6 -5.4,0 -5.4,0.59 -5.4,-1.19 -5.39,0.6 -5.41,-0.6 -5.4,-0.6 -16.19,0 -5.41,0.6 -5.4,0 -5.4,-0.6 -33,0 -5.4,0.6 -5.39,0 -5.41,-0.6 -5.4,0.6 -5.4,-0.6 -6,0.6 -27,0 -5.4,0.6 -5.39,-0.6 -5.41,0.6 -5.4,-0.6 -5.4,0.6 -16.79,0 -5.41,0.59 -5.4,-0.59 -5.4,0 -5.4,0.59 -5.39,0 -5.41,-0.59 -21.59,0 -5.41,-0.6 -5.4,0.6" />
              <path
                 inkscape:connector-curvature="0"
                 id="path10860"
                 style="fill:none;stroke:#00ffff;stroke-width:9;stroke-linecap:butt;stroke-linejoin:miter;stroke-miterlimit:10;stroke-dasharray:none;stroke-opacity:1"
                 d="m 2201.8,1112.39 -5.4,0.61 -5.4,-0.61 -5.39,0 -5.41,0.61 -5.4,-0.61 -5.4,0.61 -5.4,0 -5.39,-0.61 -5.41,0 -5.4,0.61 -5.4,0 -5.4,-0.61 -22.2,0 -5.4,-0.59 -5.4,0.59 -5.39,0 -5.41,-0.59 -5.4,0.59 -5.4,0 -5.4,-0.59 -16.2,0 -5.4,0.59 -5.4,-1.19 -10.8,0 -5.4,0.6 -39,0 -5.4,0.59 -16.2,0 -5.4,0.61 -10.8,0 -5.39,0.6 -5.41,0 -5.4,0.6 -10.8,0 -5.39,0.6 -5.41,0.59 -5.4,0.61 -5.4,1.2 -5.4,0.6 -5.39,0 -5.41,1.2 -5.4,1.2 -5.4,0 -5.4,0.6 -5.39,1.8 -6,0.6 -5.41,0.6 -5.4,1.8 -5.4,0.6 -5.4,1.8 -5.39,1.8 -5.41,1.8 -6,1.2 -5.4,1.8 -5.4,2.4 -5.4,1.8 -5.39,2.4 -5.41,2.4 -5.4,2.4 -5.4,3 -5.4,2.39 -5.39,2.41 -5.41,3.59 -5.4,3 -5.4,3 -5.4,3 -5.39,3 -5.41,3.61 -5.4,3.6 -6,3 -5.4,2.4 -5.4,1.8 -5.39,1.8 -5.41,1.79 -5.4,1.81 -5.4,1.8 -5.4,1.2 -5.39,2.4 -5.41,1.79 -5.4,1.21 -5.4,2.4 -5.4,2.39 -5.39,3 -5.41,3.61 -5.4,3.6 -5.4,3 -5.4,3 -5.39,4.2 -5.41,3.59 -5.4,3 -5.4,3 -5.4,1.81 -5.39,1.8 -6.61,0.6 -5.39,0 -5.41,-0.6 -5.4,-1.2 -5.4,-1.8 -5.4,-3.61 -5.39,-3 -5.41,-3.59 -5.4,-3 -5.4,-3 -5.4,-3.6 -5.39,-1.81 -5.41,-2.39 -5.4,-3 -5.4,-2.4 -5.4,-2.4 -5.39,-1.81 -5.41,-1.19 -5.4,-2.4 -5.4,-1.8 -5.4,-1.8 -5.39,-1.81 -5.41,-2.39 -5.4,-3 -5.4,-3.61 -6,-4.19 -5.4,-3 -5.39,-3.6 -5.41,-3.6 -5.4,-3 -5.4,-3.61 -5.4,-3 -5.39,-2.39 -5.41,-3.61 -5.4,-2.39 -5.4,-3 -6,-3 -5.4,-2.4 -5.39,-3 -5.41,-2.4 -5.4,-2.4 -5.4,-1.8 -5.4,-2.4 -5.39,-2.4 -5.41,-1.81 -5.4,-1.19 -5.4,-1.81 -5.4,-1.79 -5.39,-1.21 -6,-0.59 -5.41,-1.2 -5.4,0 -5.4,-1.21 -5.4,-0.59 -5.39,-0.6 -5.41,-0.6 -5.4,-0.6 -5.4,-0.61 -16.2,0 -5.4,-0.59" />
              <path
                 inkscape:connector-curvature="0"
                 id="path10862"
                 style="fill:none;stroke:#ffff00;stroke-width:4.5;stroke-linecap:butt;stroke-linejoin:miter;stroke-miterlimit:10;stroke-dasharray:none;stroke-opacity:1"
                 d="m 2201.8,1111.8 -5.4,-0.6 -5.4,0.6 -5.39,-0.6 -5.41,0 -5.4,-0.6 -5.4,1.2 -5.4,-0.6 -5.39,0 -5.41,0.6 -5.4,-0.6 -5.4,-0.6 -43.79,0 -5.41,0.6 -5.4,0.6 -5.4,-1.2 -10.79,0 -5.41,0.6 -5.4,0 -5.4,-0.6 -10.79,0 -5.41,0.6 -5.4,0.6 -10.8,0 -6,-0.6 -5.39,0.6 -5.41,-0.6 -6,0.6 -5.4,-0.6 -5.4,0 -5.4,0.6 -5.39,-0.6 -5.41,0 -5.4,0.6 -5.4,0 -5.4,-0.6 -5.39,0.6 -16.21,0 -5.4,0.59 -5.39,0 -5.41,-0.59 -5.4,-0.6 -5.4,1.19 -5.4,-0.59 -5.39,0.59 -10.81,0 -5.4,-0.59 -10.79,0 -6,-0.6 -5.41,0 -5.4,-0.6 -5.4,1.2 -5.4,0.59 -5.39,0.61 -5.41,0 -6,-0.61 -21.59,0 -5.41,0.61 -16.2,0 -5.39,-0.61 -5.41,-1.19 -5.4,-0.6 -5.4,0 -5.4,0.6 -5.39,0 -5.41,-0.6 -5.4,0.6 -6,0.6 -21.6,0 -5.4,-0.6 -10.8,0 -5.39,-0.6 -5.41,0 -5.4,-0.6 -5.4,0.6 -5.4,0 -5.39,0.6 -5.41,0 -5.4,-0.6 -10.8,0 -5.39,1.2 -5.41,0.59 -5.4,0.61 -5.4,0 -5.4,-0.61 -12,0 -5.39,-1.19 -5.41,-0.6 -10.8,0 -5.4,1.2 -5.39,0.59 -5.41,-0.59 -5.4,0 -5.4,0.59 -5.4,0 -5.39,-0.59 -5.41,0 -5.4,-0.6 -5.4,0 -5.4,-0.6 -5.39,0.6 -21.61,0 -5.39,0.6 -5.41,0.59 -10.8,0 -6,-0.59 -5.4,0.59 -5.39,0 -5.41,-0.59 -5.4,0 -5.4,-0.6 -5.4,0.6 -5.39,0.59 -16.21,0 -6,0.61 -5.4,-0.61 -5.39,-0.59 -5.41,0 -5.4,0.59 -5.4,-0.59 -10.79,0 -5.41,-0.6 -10.8,0 -5.4,-0.6 -5.39,0 -6,0.6 -5.41,0.6 -5.4,-0.6 -5.4,0.6 -10.79,0 -5.41,0.59 -5.4,0 -5.4,-0.59 -5.4,-0.6 -5.39,1.19 -5.41,-0.59 -5.4,-0.6" />
              <path
                 inkscape:connector-curvature="0"
                 id="path10864"
                 style="fill:none;stroke:#000000;stroke-width:4.5;stroke-linecap:butt;stroke-linejoin:miter;stroke-miterlimit:10;stroke-dasharray:27;stroke-dashoffset:0;stroke-opacity:1"
                 d="m 2201.8,1111.8 -37.8,0 -5.39,0.59 -5.41,-0.59 -5.4,0 -5.4,-0.6 -5.4,0.6 -16.8,0 -5.4,0.59 -5.4,-0.59 -21.6,0 -5.4,0.59 -5.4,0 -5.39,-0.59 -16.21,0 -5.4,0.59 -5.39,-0.59 -5.41,0 -5.4,-0.6 -27.6,0 -6,-0.6 -5.4,0 -5.4,0.6 -5.4,-0.6 -5.39,0 -5.41,0.6 -5.4,-0.6 -10.8,0 -5.39,0.6 -16.21,0 -5.4,-0.6 -10.8,0 -5.4,0.6 -5.4,0.6 -16.2,0 -5.4,-0.6 -5.4,1.19 -5.4,0 -5.39,-0.59 -6,0 -5.41,-0.6 -5.4,0.6 -5.4,0.59 -5.4,-1.79 -5.39,-1.21 -11.41,0 -5.4,0.61 -10.8,0 -5.39,0.6 -5.41,-0.6 -5.4,0.6 -5.4,-0.6 -5.4,0.6 -5.39,1.2 -5.41,-0.6 -5.4,0.6 -5.4,0 -5.4,0.59 -5.39,0.61 -5.41,-1.2 -5.4,-1.2 -6,0 -5.4,0.6 -5.4,0.6 -5.39,0 -5.41,-0.6 -10.8,0 -5.4,-0.6 -5.39,0 -5.41,-0.6 -5.4,0.6 -10.8,0 -5.39,-0.6 -5.41,-0.61 -5.4,-0.59 -5.4,0 -5.4,1.8 -16.2,0 -5.4,0.6 -10.79,0 -6.61,0.6 -5.39,0.59 -5.41,-0.59 -5.4,0 -5.4,-0.6 -5.4,0.6 -5.39,0.59 -5.41,0 -5.4,-0.59 -27,0 -5.4,-0.6 -5.4,0.6 -5.39,-0.6 -5.41,0.6 -5.4,0 -5.4,-1.2 -5.4,-1.21 -5.39,-0.59 -5.41,-0.6 -5.4,0.6 -5.4,1.2 -16.79,0 -5.41,0.6 -5.4,0 -5.4,1.2 -10.79,0 -5.41,-0.6 -10.8,0 -6,0.6 -16.2,0 -5.4,-0.6 -5.4,0.6 -27,0 -5.4,0.59 -5.39,-0.59 -16.81,0 -5.4,-0.6 -5.4,-0.6 -5.39,0.6 -5.41,-0.6 -5.4,0.6 -16.19,0 -5.41,-0.6 -5.4,0.6" />
              <path
                 inkscape:connector-curvature="0"
                 id="path10866"
                 style="fill:none;stroke:#00ff00;stroke-width:4.5;stroke-linecap:butt;stroke-linejoin:miter;stroke-miterlimit:10;stroke-dasharray:27;stroke-dashoffset:0;stroke-opacity:1"
                 d="m 2201.8,1111.2 -27,0 -5.4,-0.6 -5.4,1.79 -5.39,-0.59 -5.41,0 -5.4,0.59 -5.4,0.61 -5.4,-0.61 -6,0 -5.39,0.61 -5.41,-1.2 -5.4,0 -5.4,0.59 -5.4,0 -5.39,-0.59 -5.41,1.2 -5.4,0 -5.4,-1.8 -5.4,1.19 -5.39,0 -5.41,-0.59 -5.4,0 -5.4,1.8 -5.4,-0.6 -5.39,-1.2 -5.41,-0.6 -5.4,0 -5.4,0.6 -5.4,0 -6,-0.6 -10.8,0 -6,0.6 -5.4,-0.6 -48.6,0 -5.4,0.6 -5.4,-0.6 -5.4,0.6 -5.39,0.59 -10.81,0 -5.4,-1.19 -5.4,0.6 -5.39,-0.6 -5.41,0 -5.4,0.6 -10.8,0 -5.39,0.59 -6,-0.59 -10.81,0 -5.4,-0.6 -5.4,0.6 -5.39,1.2 -11.41,0 -5.4,-0.61 -5.4,0.61 -27,0 -5.4,-0.61 -5.39,-0.59 -5.41,1.2 -5.4,0 -5.4,-0.61 -5.4,-1.19 -5.39,-0.6 -16.81,0 -5.4,-0.6 -5.4,0.6 -5.39,0.6 -5.41,0.6 -5.4,0.59 -5.4,0.61 -5.4,0 -5.39,0.6 -16.21,0 -5.4,-0.6 -5.39,0 -5.41,-1.2 -5.4,0 -5.4,-0.6 -5.4,-0.6 -5.39,0.6 -5.41,1.19 -5.4,0 -5.4,-0.59 -5.4,-0.6 -5.39,-0.6 -6.61,-0.6 -5.39,-0.61 -5.41,0 -5.4,0.61 -5.4,1.2 -5.4,0.6 -5.39,0 -5.41,0.59 -5.4,-0.59 -5.4,0.59 -5.4,-0.59 -5.39,0.59 -5.41,-0.59 -5.4,0 -5.4,0.59 -5.4,0.61 -5.39,-0.61 -5.41,0 -5.4,-1.79 -5.4,-0.6 -5.4,0.6 -5.39,0.6 -5.41,0.6 -5.4,-0.6 -5.4,0 -6,0.6 -10.79,0 -5.41,-0.6 -5.4,0.6 -10.8,0 -5.39,-1.2 -5.41,0.6 -5.4,0.6 -5.4,0.59 -6,-0.59 -5.4,-0.6 -5.39,0.6 -5.41,0.59 -10.8,0 -5.4,-1.19 -5.39,0 -5.41,0.6 -5.4,0.59 -5.4,0 -5.4,-1.19 -5.39,0.6 -6,-0.6 -5.41,0.6 -16.2,0 -5.39,-0.6 -5.41,0.6 -5.4,0.59 -5.4,-0.59 -5.4,0 -5.39,-1.2 -5.41,1.79 -5.4,-0.59" />
              <path
                 inkscape:connector-curvature="0"
                 id="path10868"
                 style="fill:none;stroke:#00ffff;stroke-width:4.5;stroke-linecap:butt;stroke-linejoin:miter;stroke-miterlimit:10;stroke-dasharray:27;stroke-dashoffset:0;stroke-opacity:1"
                 d="m 2201.8,1111.2 -5.4,-0.6 -5.4,1.2 -5.39,-0.6 -43.21,0 -5.4,-0.6 -6,0.6 -10.8,0 -5.4,-0.6 -5.4,0.6 -5.4,0.6 -5.39,-0.6 -5.41,0 -5.4,0.6 -5.4,-1.2 -5.4,0 -5.39,0.6 -5.41,-0.6 -5.4,-0.6 -5.4,0.6 -5.4,0 -5.39,0.6 -38.41,0 -6,0.6 -21.59,0 -5.41,0.59 -48.59,0 -5.41,-0.59 -5.4,0 -5.4,-0.6 -5.4,0 -5.39,0.6 -5.41,-0.6 -10.8,0 -5.4,-0.6 -11.39,0 -5.41,0.6 -5.4,0 -5.4,-0.6 -5.4,0.6 -5.39,0.6 -5.41,1.2 -11.4,0 -5.4,0.6 -5.4,0 -5.39,-0.6 -21.61,0 -5.39,-1.2 -5.41,-0.6 -5.4,0.6 -5.4,0 -5.4,-0.6 -5.39,0 -5.41,1.19 -5.4,0.61 -6,0 -5.4,-0.61 -5.4,-0.59 -5.39,0 -5.41,0.59 -5.4,0 -5.4,-0.59 -10.79,0 -5.41,0.59 -5.4,-0.59 -10.8,0 -5.39,-0.6 -5.41,0.6 -5.4,0 -5.4,-0.6 -5.4,-1.2 -5.39,0 -5.41,1.2 -5.4,0.6 -5.4,-0.6 -10.79,0 -6.61,-0.6 -16.2,0 -5.4,0.6 -5.4,0.6 -5.39,-0.6 -16.21,0 -5.4,0.6 -10.8,0 -5.4,-0.6 -5.4,0.6 -5.4,-0.6 -5.39,1.19 -5.41,-0.59 -5.4,-0.6 -5.4,0.6 -5.4,0.59 -5.39,0.61 -5.41,0 -5.4,-0.61 -5.4,-0.59 -6,-0.6 -5.4,0.6 -16.2,0 -5.4,-0.6 -16.2,0 -5.4,0.6 -5.4,0 -6,-0.6 -10.79,0 -5.41,0.6 -5.4,0 -5.4,-0.6 -5.4,-0.6 -5.39,0.6 -5.41,0 -5.4,0.6 -5.4,-0.6 -5.4,-0.6 -5.39,0 -6,0.6 -5.41,0.6 -5.4,0 -5.4,-0.6 -5.4,1.19 -5.39,-0.59 -21.61,0 -5.39,-0.6 -5.41,0.6 -5.4,0" />
              <path
                 inkscape:connector-curvature="0"
                 id="path10870"
                 style="fill:none;stroke:#000000;stroke-width:4.5;stroke-linecap:butt;stroke-linejoin:miter;stroke-miterlimit:10;stroke-dasharray:none;stroke-opacity:1"
                 d="m 2199.4,796.195 -5.4,0.602 -5.39,-0.602 -5.41,0.602 -125.4,0 -5.4,-0.602 -5.4,0.602 -5.39,-0.602 -5.41,0 -5.4,0.602 -10.8,0 -5.39,-0.602 -98.41,0 -5.4,0.602 -87,0 -5.4,-0.602 -5.4,0.602 -10.8,0 -5.4,-0.602 -5.4,0.602 -5.4,-0.602 -5.39,0 -5.41,-0.597 -5.4,0 -5.4,0.597 -11.4,0 -5.39,-0.597 -10.81,0 -6,-0.602 -5.4,1.199 -48.6,0 -5.4,0.602 -16.2,0 -5.4,-0.602 -5.4,-0.597 -5.4,0 -5.39,0.597 -5.41,0 -5.4,0.602 -5.4,-0.602 -10.79,0 -6,-2.398 -5.41,-6.602 -5.4,-7.8 -5.4,1.8 -5.4,14.403 -5.39,0.597 -5.41,0 -5.4,0.602 -6,-0.602 -32.4,0 -5.4,0.602 -5.39,0 -5.41,-0.602 -5.4,0 -5.4,-0.597 -5.4,0 -5.39,-1.801 -5.41,-0.602 -5.4,1.801 -5.4,1.199 -22.2,0 -5.4,0.602 -10.8,0 -5.39,-0.602 -32.41,0 -5.4,0.602 -10.8,0 -5.39,-0.602 -10.81,0 -5.4,0.602 -44.4,0 -5.39,-0.602 -16.21,0 -5.4,-0.597 -5.39,0.597 -5.41,0 -5.4,-1.199" />
              <path
                 inkscape:connector-curvature="0"
                 id="path10872"
                 style="fill:none;stroke:#00ff00;stroke-width:4.5;stroke-linecap:butt;stroke-linejoin:miter;stroke-miterlimit:10;stroke-dasharray:none;stroke-opacity:1"
                 d="m 2199.4,796.195 -33,0 -5.4,0.602 -10.8,0 -5.4,-0.602 -5.4,0.602 -5.4,-0.602 -6,0.602 -5.39,-0.602 -10.81,0 -5.4,0.602 -5.4,0 -5.39,-0.602 -5.41,0.602 -5.4,0 -5.4,-0.602 -27,0 -5.4,0.602 -5.39,-0.602 -5.41,0.602 -54.59,0 -6,-0.602 -5.41,0 -5.4,0.602 -5.4,0 -5.4,-0.602 -5.39,0.602 -48.61,0 -5.39,-0.602 -5.41,0.602 -27.59,0 -5.41,-0.602 -5.4,0 -5.4,-3 -5.4,-0.597 -5.39,1.797 -5.41,-0.598 -10.8,0 -5.4,1.199 -5.39,0.602 -5.41,0 -5.4,0.597 -16.19,0 -5.41,-1.199 -5.4,-1.199 -5.4,0.598 -5.4,1.203 -6,0.597 -97.8,0 -5.4,-3 -5.4,-5.398 -5.4,-4.801 -5.39,4.199 -5.41,4.2 -5.4,1.8 -5.4,-1.199 -5.4,-3.601 -5.39,-7.2 -6,-4.199 -5.41,0 -5.4,-1.199 -5.4,3.598 -5.4,12.601 -5.39,4.199 -70.81,0 -5.4,-0.597 -5.4,0 -5.39,0.597 -5.41,-0.597 -5.4,-0.602 -5.4,0.602 -6,0.597 -48.6,0 -5.4,0.602 -5.4,0 -5.39,-0.602 -5.41,0 -5.4,0.602 -10.8,0 -5.39,-0.602 -5.41,0.602 -16.2,0 -5.39,-0.602 -5.41,0 -6.59,0.602 -37.81,0 -5.4,-0.602 -21.6,0" />
              <path
                 inkscape:connector-curvature="0"
                 id="path10874"
                 style="fill:none;stroke:#ffff00;stroke-width:4.5;stroke-linecap:butt;stroke-linejoin:miter;stroke-miterlimit:10;stroke-dasharray:none;stroke-opacity:1"
                 d="m 2199.4,794.996 -5.4,1.199 -66,0 -5.39,0.602 -59.41,0 -5.4,-0.602 -5.4,0.602 -141.6,0 -5.4,-0.602 -37.79,0 -6,0.602 -81,0 -5.41,-0.602 -5.4,0.602 -10.8,0 -6,-0.602 -5.39,0 -5.41,0.602 -141.59,0 -5.41,-0.602 -10.8,0 -5.4,0.602 -5.39,-0.602 -5.41,-0.597 -5.4,0.597 -33,0 -5.4,0.602 -92.4,0 -5.39,-0.602 -64.81,0 -5.4,0.602 -5.4,-0.602 -5.39,0 -5.41,0.602 -6.59,0 -5.41,-0.602 -10.8,0 -5.4,0.602 -5.39,-0.602 -37.81,0" />
              <path
                 inkscape:connector-curvature="0"
                 id="path10876"
                 style="fill:none;stroke:#000000;stroke-width:4.5;stroke-linecap:butt;stroke-linejoin:miter;stroke-miterlimit:10;stroke-dasharray:27;stroke-dashoffset:0;stroke-opacity:1"
                 d="m 2199.4,795.598 -5.4,0.597 -71.39,0 -5.41,0.602 -5.4,0 -5.4,-0.602 -5.4,0.602 -5.39,0 -5.41,-0.602 -5.4,0.602 -5.4,-0.602 -81.6,0 -5.4,0.602 -5.4,-0.602 -119.39,0 -6,0.602 -32.41,0 -5.4,-0.602 -64.8,0 -6,-0.597 -5.39,-0.602 -5.41,1.199 -54.59,0 -5.41,0.602 -37.8,0 -5.4,-0.602 -5.39,0.602 -27,0 -6,-0.602 -27,0 -5.41,-0.597 -5.4,0 -6,0.597 -5.4,0 -5.4,-0.597 -5.39,0 -5.41,0.597 -43.2,0 -5.39,0.602 -5.41,0 -5.4,-0.602 -60,0 -5.4,-0.597 -5.4,0.597 -64.8,0 -6.59,0.602 -5.41,-0.602 -10.8,0 -5.4,0.602 -5.39,-0.602 -32.41,0 -5.4,-0.597" />
              <path
                 inkscape:connector-curvature="0"
                 id="path10878"
                 style="fill:none;stroke:#00ff00;stroke-width:4.5;stroke-linecap:butt;stroke-linejoin:miter;stroke-miterlimit:10;stroke-dasharray:27;stroke-dashoffset:0;stroke-opacity:1"
                 d="m 2199.4,796.797 -120,0 -5.4,-0.602 -5.39,0.602 -5.41,0 -5.4,-0.602 -48.6,0 -5.4,-1.199 -6,0.602 -5.4,0 -5.4,-0.602 -5.39,0.602 -6,-1.203 -5.41,0 -5.4,0.601 -5.4,0 -5.4,-1.199 -5.39,0.598 -5.41,-0.598 -5.4,0 -5.4,-1.199 -5.4,1.199 -5.39,1.199 -5.41,1.199 -5.4,0 -5.4,0.602 -114,0 -5.4,-0.602 -5.39,0 -5.41,-1.199 -5.4,1.199 -10.8,0 -6,-5.398 -5.39,-12 -5.41,7.801 -5.4,0.597 -6,0 -5.4,4.2 -5.4,1.8 -5.39,1.2 -5.41,1.203 -5.4,0.597 -10.8,0 -5.39,0.602 -37.81,0 -5.4,-0.602 -5.4,0 -5.39,0.602 -21.61,0 -5.39,-0.602 -6,-0.597 -5.41,-3 -5.4,-3.602 -5.4,-1.801 -5.4,8.403 -5.39,0 -5.41,0.597 -33,0 -5.4,0.602 -10.8,0 -5.39,-0.602 -10.81,0 -5.4,-1.199 -5.4,0.602 -5.39,0.597 -22.21,0 -5.4,0.602 -21.6,0 -5.4,-0.602 -54,0 -5.39,0.602 -5.41,-0.602 -5.4,0 -5.4,0.602 -60.6,0 -5.4,-0.602 -21.6,0" />
              <path
                 inkscape:connector-curvature="0"
                 id="path10880"
                 style="fill:none;stroke:#00ffff;stroke-width:4.5;stroke-linecap:butt;stroke-linejoin:miter;stroke-miterlimit:10;stroke-dasharray:27;stroke-dashoffset:0;stroke-opacity:1"
                 d="m 2199.4,796.195 -10.79,0 -5.41,0.602 -33,0 -5.4,-0.602 -5.4,0 -5.4,0.602 -130.2,0 -6,-0.602 -81.6,0 -5.4,0.602 -21.6,0 -5.4,-0.602 -5.4,0.602 -38.4,0 -5.39,-0.602 -5.41,-1.199 -5.4,-3 -5.4,-1.801 -5.4,1.2 -5.39,0.601 -5.41,1.801 -5.4,0.598 -5.4,0.601 -5.4,0 -5.39,0.602 -5.41,0.597 -10.8,0 -5.4,0.602 -6,-0.602 -10.8,0 -5.4,-1.199 -6,-6.601 -5.4,3 -5.4,3 -5.39,1.203 -5.41,0.597 -32.4,0 -5.4,0.602 -10.79,0 -5.41,-0.602 -10.8,0 -5.4,0.602 -43.8,0 -5.4,-0.602 -10.8,0 -5.39,0.602 -22.21,0 -5.4,-0.602 -21.6,0 -5.4,0.602 -5.39,-0.602 -5.41,0 -5.4,0.602 -10.8,0 -5.39,-0.602 -5.41,-5.398 -5.4,-11.402 -5.4,7.8 -6,7.801 -16.2,0 -5.4,1.199 -5.4,0.602 -5.4,0 -5.39,-0.602 -5.41,0.602 -5.4,-0.602 -16.19,0 -5.41,0.602 -5.4,0 -5.4,-0.602 -5.4,0 -5.39,0.602 -39,0 -5.41,-0.602 -59.4,0" />
              <path
                 inkscape:connector-curvature="0"
                 id="path10882"
                 style="fill:none;stroke:#00ff00;stroke-width:9;stroke-linecap:butt;stroke-linejoin:miter;stroke-miterlimit:10;stroke-dasharray:none;stroke-opacity:1"
                 d="m 2201.8,1111.2 -5.4,0 -5.4,0.6 -5.39,0.59 -5.41,0 -5.4,0.61 -5.4,1.2 -5.4,0.6 -5.39,1.8 -5.41,1.2 -5.4,1.2 -5.4,2.39 -5.4,1.81 -6,1.8 -5.39,2.39 -5.41,2.41 -5.4,2.4 -5.4,2.4 -5.4,1.79 -5.39,2.41 -5.41,3 -5.4,1.8 -5.4,2.4 -5.4,1.8 -5.39,2.4 -5.41,1.8 -5.4,1.2 -5.4,1.8 -5.4,3 -5.39,2.39 -5.41,2.41 -5.4,3 -5.4,3 -5.4,3.59 -6,3.61 -5.39,3 -5.41,4.2 -6,3 -5.4,3 -5.4,3 -5.4,3 -5.39,1.8 -5.41,1.2 -5.4,1.19 -5.4,1.21 -16.2,0 -5.4,-0.6 -5.4,-0.61 -5.4,-0.59 -5.39,-0.6 -5.41,-0.6 -5.4,-1.21 -5.4,-0.59 -5.4,-1.2 -5.39,-1.21 -5.41,-1.19 -5.4,-2.4 -5.4,-1.8 -5.4,-2.4 -5.39,-2.4 -6,-3 -5.41,-1.2 -5.4,-2.4 -5.4,-3.6 -5.4,-1.8 -5.39,-3 -5.41,-3 -6,-2.4 -5.4,-3 -5.4,-2.41 -5.4,-2.39 -5.39,-3 -5.41,-2.4 -5.4,-2.4 -5.4,-1.81 -5.4,-2.39 -5.39,-2.4 -5.41,-1.8 -5.4,-1.8 -5.4,-1.2 -5.4,-1.2 -5.39,-1.21 -5.41,-1.19 -5.4,-1.2 -6,-1.8 -5.4,-1.2 -5.4,-0.61 -5.39,-0.59 -5.41,-0.6 -5.4,-0.6 -5.4,-1.21 -5.4,-0.59 -5.39,-0.6 -5.41,-0.6 -5.4,-1.21 -5.4,-0.59 -5.4,0 -5.39,-0.6 -5.41,-1.2 -5.4,-0.61 -5.4,1.81 -5.4,-0.6 -5.39,-1.21 -5.41,-0.59 -5.4,0 -5.4,-0.6 -5.4,0 -5.39,-0.6 -17.41,0 -5.4,-1.21 -10.8,0 -5.39,-0.59 -10.81,0 -5.4,-1.2 -5.4,0 -5.39,-0.6 -5.41,-0.61 -5.4,0.61 -10.8,0 -5.39,-1.2 -5.41,0 -5.4,1.8 -5.4,0 -5.4,0.6 -5.39,-1.2 -5.41,-1.2 -5.4,-0.6 -5.4,0.6 -6,0.59 -5.4,0.61 -16.2,0 -5.4,-0.61 -5.4,-0.59 -5.39,-0.6 -16.21,0 -6,-0.6 -5.4,0 -5.39,1.2 -5.41,0 -5.4,-0.6 -5.4,-0.6 -5.4,1.2 -5.39,-0.6 -5.41,0.6 -5.4,0 -5.4,-0.6 -5.4,1.19 -5.39,0 -6,-0.59 -5.41,-0.6 -5.4,0 -5.4,0.6 -5.4,-0.6 -10.8,0 -5.4,-0.6 -5.4,0.6 -5.4,-0.6 -5.39,0.6 -5.41,0.6 -5.4,0" />
              <path
                 inkscape:connector-curvature="0"
                 id="path10884"
                 style="fill:none;stroke:#ff0000;stroke-width:9;stroke-linecap:butt;stroke-linejoin:miter;stroke-miterlimit:10;stroke-dasharray:none;stroke-opacity:1"
                 d="m 2201.8,1111.2 -5.4,0 -5.4,-0.6 -5.39,0.6 -5.41,-0.6 -5.4,1.2 -5.4,0 -5.4,-1.2 -5.39,0.6 -5.41,-0.6 -5.4,0 -5.4,-0.6 -5.4,1.2 -6,-0.6 -5.39,-0.6 -5.41,1.2 -10.8,0 -5.4,-0.6 -5.39,0.6 -5.41,-0.6 -5.4,0 -5.4,0.6 -5.4,0 -5.39,-0.6 -5.41,1.2 -5.4,0 -5.4,-1.2 -5.4,0.6 -5.39,1.19 -5.41,-0.59 -5.4,0.59 -10.8,0 -6,0.61 -5.39,0 -5.41,0.6 -6,-0.6 -10.8,0 -5.4,-0.61 -5.39,0.61 -21.61,0 -5.39,-0.61 -21.61,0 -5.39,-0.59 -43.21,0 -5.4,0.59 -5.39,-1.19 -6,0.6 -5.41,0.59 -10.8,0 -5.4,-0.59 -5.39,-1.2 -5.41,-0.6 -6,0 -5.4,0.6 -10.8,0 -5.39,0.6 -10.81,0 -5.4,0.6 -5.4,0.59 -5.39,1.81 -5.41,-0.6 -5.4,-0.6 -5.4,1.2 -5.4,1.8 -5.39,0.6 -5.41,0.6 -5.4,0 -6,0.6 -5.4,0.59 -16.2,0 -5.4,0.61 -5.4,0 -5.4,0.6 -5.39,0.6 -5.41,0 -5.4,1.19 -5.4,1.21 -5.4,1.2 -5.39,1.2 -5.41,2.39 -5.4,1.21 -5.4,1.2 -5.4,1.8 -5.39,0 -5.41,0.6 -5.4,1.19 -5.4,1.21 -5.4,2.4 -5.39,1.8 -6.61,2.4 -5.39,2.4 -5.41,2.4 -5.4,1.8 -5.4,1.2 -5.4,2.39 -5.39,2.41 -5.41,3 -5.4,3 -5.4,3 -5.4,4.2 -5.39,3 -5.41,4.8 -5.4,3 -5.4,2.4 -5.4,4.19 -5.39,3.61 -5.41,3 -5.4,4.8 -5.4,4.8 -5.4,3.6 -5.39,4.19 -5.41,4.21 -5.4,4.2 -5.4,3.59 -6,3.61 -5.4,3 -5.39,4.2 -5.41,3.6 -5.4,2.4 -5.4,3.6 -5.4,3 -5.39,3 -5.41,2.4 -5.4,2.4 -5.4,2.4 -6,1.8 -5.4,1.8 -5.39,1.79 -5.41,0.61 -5.4,1.2 -5.4,0 -5.4,0.6 -5.39,0.59 -5.41,-1.19 -5.4,-1.2 -5.4,-1.2 -5.4,-1.2 -5.39,-1.8 -6,-2.41 -5.41,-3.59 -5.4,-4.2 -5.4,-4.8 -5.4,-6 -5.39,-7.2 -5.41,-9 -5.4,-12 -5.4,-12 -5.4,-13.8 -5.39,-14.41 -5.41,-18 -5.4,-17.39" />
              <path
                 inkscape:connector-curvature="0"
                 id="path10886"
                 style="fill:none;stroke:#0000ff;stroke-width:9;stroke-linecap:butt;stroke-linejoin:miter;stroke-miterlimit:10;stroke-dasharray:none;stroke-opacity:1"
                 d="m 67.0039,676.797 184.8011,0 5.398,0.598 5.402,1.8 6,13.801 5.399,-1.199 5.398,-14.402 5.403,-0.598 157.8,0 5.399,0.598 5.398,0 5.403,-0.598 37.8,0 5.399,0.598 5.398,1.203 5.403,15.597 5.398,97.801 5.402,60.602 5.399,-138.602 6,-34.801 5.398,-1.8 10.801,0 5.402,-0.598 10.797,0 5.403,0.598 5.398,-0.598 33,0 5.402,0.598 5.399,-0.598 97.801,0 5.398,0.598 5.402,1.203 5.399,0.597 5.398,-0.597 5.403,0.597 5.398,-0.597 5.402,-0.602 10.797,0 5.403,-0.601 5.398,-0.598 5.402,0.598 5.399,-0.598 207,0" />
              <path
                 inkscape:connector-curvature="0"
                 id="path10888"
                 style="fill:none;stroke:#00ffff;stroke-width:9;stroke-linecap:butt;stroke-linejoin:miter;stroke-miterlimit:10;stroke-dasharray:27;stroke-dashoffset:0;stroke-opacity:1"
                 d="m 67.0039,226.797 930.0001,0" />
              <path
                 inkscape:connector-curvature="0"
                 id="path10890"
                 style="fill:none;stroke:#ff00ff;stroke-width:9;stroke-linecap:butt;stroke-linejoin:miter;stroke-miterlimit:10;stroke-dasharray:none;stroke-opacity:1"
                 d="m 2201.8,1132.8 -5.4,19.8 -5.4,16.2 -5.39,14.4 -5.41,12.6 -5.4,10.2 -5.4,9.6 -5.4,6 -5.39,6.6 -5.41,4.19 -5.4,3.61 -5.4,0.6 -5.4,2.4 -6,0 -5.39,-0.61 -5.41,-0.59 -5.4,-1.2 -5.4,-3.6 -5.4,-2.4 -5.39,-3 -5.41,-4.21 -5.4,-3.59 -5.4,-3.6 -5.4,-5.4 -5.39,-4.8 -5.41,-3.61 -5.4,-4.19 -5.4,-4.81 -5.4,-4.19 -5.39,-3 -5.41,-3.6 -5.4,-2.4 -5.4,-3 -5.4,-2.4 -6,-2.41 -5.39,-2.39 -5.41,-1.2 -6,-2.41 -5.4,-1.79 -5.4,-1.21 -5.4,-1.79 -5.39,-1.8 -5.41,-1.8 -5.4,-1.8 -5.4,-1.81 -5.4,-1.79 -5.39,-2.4 -5.41,-1.81 -5.4,-1.79 -5.4,-1.8 -5.4,-1.8 -5.39,-2.4 -5.41,-1.21 -5.4,-1.79 -5.4,-1.21 -5.4,-1.79 -5.39,-1.21 -5.41,-1.19 -5.4,-1.2 -5.4,-1.2 -5.4,-1.2 -5.39,-1.21 -6,-0.59 -5.41,0 -5.4,-0.6 -5.4,-0.6 -5.4,-0.6 -5.39,-1.2 -5.41,-0.6 -6,-1.2 -5.4,-0.61 -5.4,-0.59 -5.4,-0.6 -5.39,-0.6 -5.41,-0.6 -5.4,-0.61 -5.4,0 -5.4,-1.19 -5.39,0 -5.41,1.19 -5.4,-1.19 -10.8,0 -5.39,-1.2 -5.41,-0.61 -5.4,-0.59 -6,-0.6 -5.4,0.6 -5.4,0 -5.39,-0.6 -5.41,-0.6 -5.4,-0.6 -10.8,0 -5.39,0.6 -5.41,-0.6 -5.4,-0.61 -10.8,0 -5.39,0.61 -5.41,0.6 -16.2,0 -5.39,-0.6 -5.41,-0.61 -5.4,-0.59 -5.4,0.59 -10.79,0 -6.61,-0.59 -5.39,0.59 -16.21,0 -5.4,-0.59 -5.39,-0.6 -5.41,0 -5.4,0.6 -5.4,0 -5.4,-0.6 -10.8,0 -5.4,0.6 -5.4,-0.6 -16.2,0 -5.4,0.6 -5.4,0.59 -5.4,-0.59 -5.39,-0.6 -5.41,0 -5.4,0.6 -5.4,0.59 -6,-0.59 -5.4,-0.6 -16.2,0 -5.4,0.6 -5.4,0.59 -5.39,0 -5.41,-0.59 -16.8,0 -5.4,0.59 -5.39,-0.59 -5.41,-1.2 -5.4,0 -5.4,0.6 -5.4,1.19 -5.39,-0.59 -5.41,0 -5.4,-0.6 -5.4,0 -5.4,1.19 -5.39,-1.19 -6,0.6 -5.41,-1.2 -5.4,0.6 -10.8,0 -5.39,0.6 -5.41,0 -5.4,-0.6 -5.4,0.6 -5.4,-0.6 -5.39,1.19 -5.41,-1.19 -5.4,0" />
              <path
                 inkscape:connector-curvature="0"
                 id="path10892"
                 style="fill:none;stroke:#0000ff;stroke-width:9;stroke-linecap:butt;stroke-linejoin:miter;stroke-miterlimit:10;stroke-dasharray:none;stroke-opacity:1"
                 d="m 2201.8,1111.8 -5.4,-0.6 -27,0 -5.4,0.6 -10.8,0 -5.4,-0.6 -5.4,0.6 -5.4,0.59 -6,-0.59 -5.39,0 -5.41,0.59 -5.4,-0.59 -5.4,0.59 -5.4,0 -5.39,0.61 -5.41,0.6 -5.4,-0.6 -5.4,0 -5.4,1.8 -5.39,0.59 -5.41,0.61 -5.4,0.6 -5.4,0.6 -5.4,1.8 -5.39,1.2 -5.41,1.8 -5.4,1.2 -5.4,1.8 -5.4,1.8 -6,2.4 -5.39,2.4 -5.41,2.4 -6,3 -5.4,2.39 -5.4,3 -5.4,3 -5.39,2.41 -5.41,3 -5.4,3 -5.4,2.4 -5.4,2.4 -5.39,2.4 -5.41,2.39 -5.4,2.41 -5.4,1.8 -5.4,2.4 -5.39,2.39 -5.41,1.81 -5.4,2.4 -5.4,1.79 -5.4,2.41 -5.39,1.8 -5.41,1.79 -5.4,1.81 -5.4,1.8 -5.4,2.39 -5.39,2.41 -6,1.8 -5.41,2.4 -5.4,2.39 -5.4,1.81 -5.4,3 -5.39,1.19 -5.41,1.21 -6,1.79 -5.4,0.61 -5.4,0.6 -16.2,0 -5.4,-0.6 -5.4,-0.61 -5.4,-1.19 -5.39,0 -5.41,-0.6 -5.4,-0.6 -5.4,0 -5.4,0.6 -5.39,0 -5.41,0.6 -5.4,-0.6 -6,-0.6 -5.4,-1.2 -5.4,-1.8 -5.39,-1.8 -5.41,-3 -5.4,-2.4 -5.4,-3 -5.4,-3 -5.39,-3 -5.41,-3.6 -5.4,-3 -5.4,-3 -5.4,-3.6 -5.39,-3 -5.41,-3.6 -5.4,-3.61 -5.4,-2.39 -5.4,-2.4 -5.39,-2.4 -5.41,-2.4 -5.4,-2.41 -5.4,-2.39 -5.4,-1.2 -5.39,-1.8 -6.61,-1.2 -5.39,-1.2 -5.41,-2.4 -5.4,-1.81 -5.4,-1.19 -5.4,0 -5.39,-1.2 -5.41,-1.2 -5.4,-1.8 -5.4,-0.61 -5.4,-1.19 -5.39,-1.2 -5.41,-1.8 -5.4,-0.6 -5.4,-0.6 -5.4,-0.61 -5.39,-1.79 -5.41,-0.6 -5.4,0.6 -5.4,-1.21 -5.4,-1.19 -5.39,-1.2 -5.41,-1.2 -5.4,-0.6 -5.4,-0.6 -6,0 -5.4,-0.6 -5.39,-0.61 -5.41,-1.19 -5.4,-0.6 -5.4,-0.6 -5.4,-0.61 -5.39,-0.59 -5.41,0 -5.4,-1.2 -5.4,0 -6,-0.6 -5.4,0 -5.39,0.6 -5.41,-0.6 -5.4,-0.61 -5.4,-0.59 -5.4,0 -5.39,0.59 -5.41,-1.19 -5.4,0 -5.4,0.6 -10.79,0 -6,-0.6 -16.21,0 -5.4,-0.6 -5.39,0 -5.41,0.6 -5.4,-0.6 -16.19,0 -5.41,0.6 -5.4,0" />
              <path
                 inkscape:connector-curvature="0"
                 id="path10894"
                 style="fill:none;stroke:#00ffff;stroke-width:9;stroke-linecap:butt;stroke-linejoin:bevel;stroke-miterlimit:10;stroke-dasharray:none;stroke-opacity:1"
                 d="m 67.0039,226.797 309.6011,0 5.399,258.598 5.398,12.601 5.403,0 5.398,-214.801 6,-56.398 592.801,0" />
              <path
                 inkscape:connector-curvature="0"
                 id="path10896"
                 style="fill:none;stroke:#ff0000;stroke-width:9;stroke-linecap:butt;stroke-linejoin:round;stroke-miterlimit:10;stroke-dasharray:none;stroke-opacity:1"
                 d="m 67.0039,226.797 173.3981,0 6,0.598 5.403,208.203 5.398,61.797 5.402,-47.399 6,-223.199 728.399,0" />
              <path
                 inkscape:connector-curvature="0"
                 id="path10898"
                 style="fill:none;stroke:#0000ff;stroke-width:9;stroke-linecap:butt;stroke-linejoin:round;stroke-miterlimit:10;stroke-dasharray:none;stroke-opacity:1"
                 d="m 67.0039,226.797 440.3981,0 5.403,3 5.398,268.199 5.402,-19.199 5.399,-252 468,0" />
              <path
                 inkscape:connector-curvature="0"
                 id="path10900"
                 style="fill:none;stroke:#ff0000;stroke-width:9;stroke-linecap:butt;stroke-linejoin:round;stroke-miterlimit:10;stroke-dasharray:none;stroke-opacity:1"
                 d="m 2199.4,796.195 -5.4,0 -5.39,0.602 -141.61,0 -5.39,-0.602 -5.41,0.602 -5.4,-0.602 -33,0 -5.4,0.602 -5.4,-0.602 -5.39,0.602 -6,-0.602 -59.41,0 -5.4,0.602 -130.19,0 -5.41,-0.602 -5.4,0.602 -10.8,0 -6,-0.602 -5.39,0 -5.41,0.602 -5.4,-0.602 -6,0 -5.4,-4.199 -5.4,-6 -5.39,7.199 -5.41,3 -10.8,0 -5.4,0.602 -32.39,0 -5.41,-0.602 -5.4,0 -5.4,0.602 -54.6,0 -5.4,0.598 -5.4,-0.598 -38.39,0 -5.41,0.598 -5.4,-0.598 -43.19,0 -5.41,1.801 -5.4,60 -5.4,120 -6,-112.203 -5.4,-42 -5.39,-13.797 -5.41,0.597 -5.4,-7.8 -5.4,-4.2 -5.4,-2.398 -147,0 -5.39,1.801 -5.41,-1.801 -5.4,1.199" />
              <path
                 inkscape:connector-curvature="0"
                 id="path10902"
                 style="fill:none;stroke:#00ffff;stroke-width:9;stroke-linecap:butt;stroke-linejoin:round;stroke-miterlimit:10;stroke-dasharray:none;stroke-opacity:1"
                 d="m 2199.4,796.195 -5.4,0.602 -343.2,0 -5.4,-0.602 -5.4,0.602 -59.39,0 -5.41,-1.199 -5.4,-0.602 -5.4,1.199 -22.2,0 -5.4,0.602 -87,0 -5.4,-0.602 -5.4,-1.199 -5.39,1.199 -5.41,0 -5.4,0.602 -5.4,-0.602 -5.4,0 -5.39,-1.199 -6,3 -5.41,77.399 -5.4,10.203 -5.4,-84 -5.4,-5.403 -10.8,0 -5.4,0.602 -6,-0.602 -5.4,0.602 -43.2,0 -5.4,-0.602 -21.6,0 -5.4,0.602 -43.8,0 -5.39,-0.602 -5.41,0 -5.4,0.602 -16.19,0 -5.41,-0.602 -5.4,0.602 -10.8,0 -5.39,-0.602 -5.41,0 -5.4,0.602 -66,0 -5.4,-0.602 -21.6,0" />
              <path
                 inkscape:connector-curvature="0"
                 id="path10904"
                 style="fill:none;stroke:#0000ff;stroke-width:9;stroke-linecap:butt;stroke-linejoin:round;stroke-miterlimit:10;stroke-dasharray:none;stroke-opacity:1"
                 d="m 2199.4,796.797 -60,0 -5.4,-0.602 -6,0.602 -16.2,0 -5.4,-0.602 -5.4,0 -5.39,0.602 -16.21,0 -5.4,-0.602 -5.39,0.602 -5.41,0 -5.4,-0.602 -10.8,0 -5.39,0.602 -10.81,0 -5.4,-0.602 -33,0 -5.4,-0.597 -5.39,0.597 -6,-1.199 -5.41,-0.601 -10.8,0 -5.4,-1.2 -5.39,-0.597 -5.41,0.597 -5.4,0 -5.4,0.602 -5.4,1.801 -5.39,0.597 -10.81,0 -5.4,0.602 -70.79,0 -5.41,-0.602 -48.59,0 -5.41,-0.597 -5.4,0.597 -5.4,0.602 -5.4,0 -6,-0.602 -5.39,-0.597 -5.41,0.597 -5.4,-1.8 -6,7.203 -5.4,64.797 -5.4,-27.598 -5.39,-50.402 -5.41,6 -5.4,1.8 -10.8,0 -5.39,0.602 -27,0 -5.41,-0.602 -5.4,0 -5.4,0.602 -49.2,0 -5.4,-0.602 -10.8,0 -5.39,0.602 -22.21,0 -5.4,-0.602 -10.8,0 -5.4,0.602 -5.4,0 -5.4,-0.602 -21.6,0 -5.4,0.602 -5.39,-0.602 -5.41,-0.597 -5.4,-22.801 -5.4,-3 -6,22.801 -5.4,3 -5.39,0.597 -32.41,0 -5.4,0.602 -5.4,-0.602 -5.4,0 -5.39,0.602 -10.81,0 -5.4,-0.602 -5.4,0 -5.39,0.602 -5.41,-0.602 -5.4,0.602 -87.6,0 -5.4,-0.602" />
              <path
                 inkscape:connector-curvature="0"
                 id="path10906"
                 style="fill:none;stroke:#000000;stroke-width:9;stroke-linecap:butt;stroke-linejoin:miter;stroke-miterlimit:10;stroke-dasharray:none;stroke-opacity:1"
                 d="m 67.0039,1174.8 5.3984,0 5.4024,1.2 5.3984,-1.2 5.4024,0.59 21.5975,0 5.402,-0.59 22.2,0 5.398,0.59 5.402,-0.59 10.797,0 5.403,0.59 5.398,-0.59 10.801,0 6,0.59 16.199,0 5.402,-0.59 5.399,0.59 5.398,-0.59 5.403,0.59 5.398,-0.59 5.402,0 5.399,-0.6 21.601,0 6,-0.6 10.797,0 5.403,0.6 37.8,0 5.399,0.6 5.398,0 5.403,-0.6 5.398,0.6 5.402,0 5.399,0.59 5.398,-0.59 5.403,0.59 5.398,0 5.402,-1.19 16.2,0 5.398,0.6 6.602,0 5.398,0.59 5.402,-0.59 5.399,0.59 5.398,-0.59 5.403,-0.6 5.398,-0.6 5.402,0 5.399,-0.6 5.398,0.6 5.403,0.6 5.398,0 5.402,-0.6 10.797,0 5.403,0.6 32.398,0 5.402,-0.6 5.399,0 6,0.6 5.398,0 5.403,-0.6 5.398,0 5.402,0.6 5.399,0 5.398,-0.6 5.403,0.6 5.398,0.6 5.402,-0.6 27.598,0 5.402,-0.6 5.399,0.6 5.398,0 5.403,0.6 5.398,0.59 5.402,-0.59 5.399,0.59 5.398,0 5.403,-0.59 6,0 5.398,0.59 16.199,0 5.403,0.61 5.398,-1.2 5.402,0.59 5.399,-1.19 59.398,0 5.403,-0.6 5.398,0.6 44.402,0 5.399,0.6 5.398,-0.6 5.403,-0.6 5.398,0 5.402,-0.6 5.399,1.2 5.398,0.6 5.403,-0.6 5.398,0 5.402,0.6 5.399,0 5.398,-0.6 5.403,0.6 5.398,-0.6 5.402,0 5.399,0.6 5.398,0 5.403,-1.2 5.398,0.6 6,0 5.402,-0.6 5.399,0.6 5.398,0.6 10.801,0 5.402,0.59 5.399,-0.59 5.398,0.59 21.602,0" />
              <path
                 inkscape:connector-curvature="0"
                 id="path10908"
                 style="fill:none;stroke:#ff00ff;stroke-width:9;stroke-linecap:butt;stroke-linejoin:round;stroke-miterlimit:10;stroke-dasharray:none;stroke-opacity:1"
                 d="m 2199.4,796.797 -174,0 -5.4,1.199 -5.39,1.199 -5.41,1.801 -5.4,1.801 -6,0.598 -5.4,0 -5.4,5.402 -5.39,-5.402 -6,11.402 -5.41,-0.602 -5.4,-0.597 -5.4,3.597 -5.4,6 -5.39,-0.597 -5.41,7.797 -5.4,13.203 -5.4,7.797 -5.4,-24.598 -5.39,-16.199 -5.41,-11.403 -5.4,-2.398 -124.8,0 -5.39,-0.602 -5.41,0 -5.4,0.602 -10.8,0 -6,-0.602 -5.39,-0.597 -5.41,0 -5.4,-2.403 -6,-7.199 -5.4,0.602 -5.4,3.597 -5.39,4.2 -5.41,1.8 -5.4,0 -5.4,0.602 -103.2,0 -5.4,-0.602 -27,0 -6,0.602 -5.4,0 -5.4,-0.602 -10.8,0 -5.4,0.602 -10.8,0 -5.39,-0.602 -27,0 -5.41,-0.597 -5.4,-0.602 -5.4,0.602 -6,0.597 -5.4,0.602 -21.6,0 -5.4,-0.602 -5.39,0 -5.41,-0.597 -5.4,0.597 -5.4,-1.8 -5.4,1.8 -27,0 -5.39,0.602 -5.41,-0.602 -5.4,0 -5.4,0.602 -49.79,0 -5.41,-0.602 -32.4,0" />
              <path
                 inkscape:connector-curvature="0"
                 id="path10910"
                 style="fill:none;stroke:#00ffff;stroke-width:9;stroke-linecap:butt;stroke-linejoin:round;stroke-miterlimit:10;stroke-dasharray:none;stroke-opacity:1"
                 d="m 67.0039,676.797 223.1991,0 5.402,0.598 5.399,-0.598 70.199,0 5.402,0.598 5.399,30 5.398,75.601 5.403,7.801 6,-95.402 6,-17.399 5.398,-1.199 16.199,0 5.403,0.598 5.398,1.203 5.402,-1.801 119.399,0 5.398,1.199 5.403,-0.601 5.398,-0.598 418.801,0" />
              <path
                 inkscape:connector-curvature="0"
                 id="path10912"
                 style="fill:none;stroke:#00ff00;stroke-width:9;stroke-linecap:butt;stroke-linejoin:round;stroke-miterlimit:10;stroke-dasharray:none;stroke-opacity:1"
                 d="m 67.0039,226.797 532.8011,0 5.398,11.398 5.402,249.602 5.399,3.598 5.398,-253.797 5.403,-10.801 370.199,0" />
              <path
                 inkscape:connector-curvature="0"
                 id="path10914"
                 style="fill:none;stroke:#00ff00;stroke-width:9;stroke-linecap:butt;stroke-linejoin:round;stroke-miterlimit:10;stroke-dasharray:none;stroke-opacity:1"
                 d="m 2199.4,796.797 -5.4,-0.602 -5.39,0.602 -103.81,0 -5.4,-0.602 -5.4,0.602 -223.2,0 -5.4,3.598 -5.4,4.203 -5.39,13.199 -5.41,33.598 -5.4,5.402 -5.4,12 -5.4,-27 -5.39,-7.199 -5.41,-15.602 -5.4,-12 -5.4,-1.199 -5.4,-3 -5.39,-2.402 -5.41,1.8 -5.4,-4.199 -5.4,0.602 -5.4,-1.203 -6,0.601 -5.39,-1.199 -22.21,0 -5.4,-0.602 -37.8,0 -5.4,0.602 -32.4,0 -5.4,-0.602 -10.8,0 -5.4,-0.597 -5.4,-0.602 -5.4,-0.601 -5.39,-1.2 -6,0.602 -5.41,1.801 -5.4,0.597 -10.8,0 -5.39,0.602 -5.41,-0.602 -5.4,0.602 -6,-0.602 -10.8,0 -5.39,0.602 -5.41,-0.602 -10.8,0 -5.4,0.602 -37.8,0 -5.4,-0.602 -38.4,0 -5.4,0.602 -27,0 -5.39,-0.602 -5.41,0.602 -109.2,0 -5.39,-0.602 -5.41,0.602 -5.4,0" />
              <path
                 inkscape:connector-curvature="0"
                 id="path10916"
                 style="fill:none;stroke:#0000ff;stroke-width:9;stroke-linecap:butt;stroke-linejoin:miter;stroke-miterlimit:10;stroke-dasharray:none;stroke-opacity:1"
                 d="m 67.0039,1175.39 5.3984,0 5.4024,0.61 16.1992,0 5.3984,-0.61 5.4027,0.61 5.398,0 5.402,-0.61 16.2,0 6,-0.59 5.398,0 5.402,0.59 32.399,0 6,-0.59 5.398,0 5.403,0.59 16.199,0 5.398,-0.59 5.403,0.59 21.597,0 5.403,-0.59 10.8,0 6,0.59 5.399,0.61 5.398,0 5.403,-0.61 5.398,-0.59 10.801,0 5.398,0.59 5.403,0.61 5.398,-0.61 10.801,0 5.398,0.61 5.403,-0.61 5.398,-0.59 10.801,0 5.398,-0.6 5.403,0 5.398,0.6 5.402,0.59 5.399,0.61 5.398,-1.2 5.403,-0.6 33.597,0 5.403,-0.6 5.398,0.6 5.402,1.19 5.399,0.61 5.398,-0.61 5.403,0 5.398,-0.59 5.402,0 5.399,0.59 27,0 5.398,-0.59 5.403,0 5.398,0.59 5.402,0.61 11.399,0 5.398,-0.61 5.403,0 5.398,-0.59 5.402,0.59 5.399,0 5.398,-0.59 5.403,-0.6 5.398,0.6 5.402,0 5.399,0.59 43.801,0 5.398,-0.59 5.402,0.59 16.2,0 6,-0.59 5.398,0 5.402,0.59 48.598,0 5.402,0.61 16.2,0 5.398,0.6 5.402,0 5.399,-0.6 5.398,0.6 5.403,0 5.398,-0.6 5.402,0.6 5.399,-0.6 12,0 5.398,-0.61 5.403,0 5.398,-0.59 10.801,0 5.398,-0.6 5.403,0.6 5.398,-0.6 5.402,0.6 21.598,0 5.402,0.59 5.399,0 5.398,-0.59 5.403,0.59 5.398,-0.59 5.402,0 5.399,0.59 5.398,-0.59 5.403,0 5.398,0.59 6,-0.59 5.402,0 5.399,0.59 5.398,-0.59 5.403,0.59 5.398,-0.59 5.402,0.59 27,0 5.399,-0.59" />
              <path
                 inkscape:connector-curvature="0"
                 id="path10918"
                 style="fill:none;stroke:#00ff00;stroke-width:9;stroke-linecap:butt;stroke-linejoin:miter;stroke-miterlimit:10;stroke-dasharray:none;stroke-opacity:1"
                 d="m 67.0039,1175.39 10.8008,0 5.3984,-0.59 59.9999,0 5.402,0.59 54.598,0 5.402,0.61 5.399,-0.61 5.398,0.61 5.403,-0.61 5.398,0 5.402,0.61 5.399,-0.61 5.398,0 5.403,0.61 16.8,0 5.399,-0.61 10.801,0 5.398,0.61 10.801,0 5.398,-0.61 10.801,0 5.402,-0.59 10.797,0 5.403,0.59 5.398,0.61 5.402,0 5.399,-0.61 5.398,0.61 5.403,0 5.398,-0.61 5.402,0 5.399,-0.59 5.398,0.59 22.801,0 5.402,0.61 16.2,0 5.398,0.6 5.402,-0.6 5.399,-0.61 21.601,0 5.399,-0.59 5.398,0.59 27,0 5.403,0.61 5.398,-0.61 5.402,0 5.399,-0.59 6,0 5.398,0.59 5.403,0.61 5.398,0 5.402,-0.61 5.399,0 5.398,0.61 5.403,-0.61 5.398,0 5.402,0.61 5.399,0 5.398,-0.61 43.801,0 5.402,-0.59 16.2,0 6,0.59 5.398,0 5.402,-0.59 10.797,0 5.403,0.59 10.8,0 5.399,0.61 32.398,0 5.403,-0.61 27,0 5.398,0.61 5.402,0 5.399,-0.61 5.398,0.61 12,0 5.403,0.6 16.199,0 5.398,-0.6 5.403,0 5.398,0.6 5.402,-1.21 21.598,0 5.402,-0.59 5.399,0.59 5.398,0 5.403,-0.59 16.199,0 5.398,-0.6 5.403,0.6 43.8,0 5.399,-0.6 5.398,0.6 5.403,0 5.398,-0.6 5.402,0.6 5.399,0" />
              <path
                 inkscape:connector-curvature="0"
                 id="path10920"
                 style="fill:none;stroke:#00ffff;stroke-width:9;stroke-linecap:butt;stroke-linejoin:miter;stroke-miterlimit:10;stroke-dasharray:none;stroke-opacity:1"
                 d="m 67.0039,1174.8 21.6016,0 5.3984,-0.6 21.6011,0 5.399,-0.6 5.398,0.6 5.403,0 6,0.6 5.398,0 5.402,-0.6 5.399,0 5.398,0.6 10.801,0 5.402,-0.6 5.399,0.6 6,0.59 5.398,0 5.403,-0.59 5.398,0 5.402,-0.6 5.399,0 5.398,0.6 21.602,0 5.398,0.59 5.403,-0.59 27.597,0 5.403,0.59 5.398,0.61 10.801,0 5.398,-1.2 10.801,0 5.402,-0.6 10.797,0 5.403,0.6 10.8,0 5.399,0.59 21.601,0 5.399,0.61 5.398,0.6 10.801,0 6.602,-0.6 16.199,0 5.398,-0.61 5.403,0.61 5.398,-0.61 5.402,0 5.399,-1.19 10.801,0 5.398,0.6 21.602,0 5.398,0.59 5.402,0 5.399,0.61 10.801,0 5.398,-0.61 5.402,0.61 16.797,0 5.403,0.6 5.398,-0.6 5.402,-0.61 10.797,0 5.403,0.61 5.398,-0.61 5.402,0 5.399,-0.59 49.199,0 5.402,0.59 5.399,-0.59 5.398,0 5.403,-0.6 6,0 5.398,0.6 5.402,0 5.399,-0.6 5.398,0.6 21.602,0 5.398,0.59 103.801,0 5.402,-0.59 5.399,0.59 16.199,0 5.402,-0.59 43.2,0 5.398,-0.6 5.402,0.6 10.797,0 5.403,-0.6 5.398,0 6,0.6 5.402,-0.6 59.399,0" />
              <path
                 inkscape:connector-curvature="0"
                 id="path10922"
                 style="fill:none;stroke:#ff0000;stroke-width:9;stroke-linecap:butt;stroke-linejoin:miter;stroke-miterlimit:10;stroke-dasharray:none;stroke-opacity:1"
                 d="m 67.0039,1174.8 5.3984,0.59 5.4024,-0.59 10.8008,0 5.3984,0.59 21.6011,0 5.399,0.61 5.398,0 5.403,-0.61 16.8,0 5.399,0.61 5.398,-1.2 5.403,-0.6 5.398,0.6 5.402,0.59 11.399,0 5.398,-0.59 5.403,0.59 16.199,0 5.398,-0.59 10.801,0 5.402,0.59 10.797,0 5.403,0.61 5.398,0 5.402,-0.61 6,0 5.399,-0.59 10.801,0 5.398,-1.2 5.402,0 5.399,0.6 5.398,1.19 5.403,0 5.398,0.61 5.402,1.2 5.399,-1.2 5.398,-0.61 5.403,0.61 5.398,-0.61 5.402,0.61 5.399,-0.61 10.801,0 5.398,-0.59 5.402,0 5.399,-1.2 10.801,0 5.398,0.6 6.602,0.6 5.398,0.59 5.402,0.61 10.797,0 5.403,-0.61 5.398,-1.19 5.402,0.6 10.797,0 5.403,1.2 5.398,0 5.402,0.6 5.399,0 5.398,0.6 5.403,-0.6 5.398,-0.6 5.402,0 5.399,-0.61 5.398,0 5.403,-1.19 5.398,0 5.402,-0.6 5.399,0 6,0.6 16.199,0 5.402,1.19 5.399,0.61 5.398,0 5.403,-0.61 5.398,1.21 5.402,0.6 49.2,0 5.398,-1.2 5.402,-0.61 5.399,0 5.398,-0.59 5.403,0.59 6,0.61 5.398,-1.2 5.402,0 5.399,0.59 16.199,0 5.402,-0.59 5.399,0.59 5.398,-0.59 10.801,0 5.402,-0.6 64.797,0 6.602,-0.6 5.398,0.6 5.403,-0.6 5.398,0.6 5.402,0.6 5.399,-0.6 5.398,0.6 5.403,0 5.398,0.59 5.402,0 5.399,-0.59 5.398,0 5.403,1.2 5.398,-0.61 5.402,0 5.399,0.61 5.398,-0.61 5.403,0 5.398,0.61 5.402,-0.61 10.797,0 5.403,0.61 5.398,0 6,-0.61 5.402,1.21 5.399,-0.6 5.398,-0.61 5.403,0 5.398,0.61 5.402,-1.2 5.399,0 5.398,1.2 5.403,-0.61 16.199,0" />
              <path
                 inkscape:connector-curvature="0"
                 id="path10924"
                 style="fill:none;stroke:#ff00ff;stroke-width:9;stroke-linecap:butt;stroke-linejoin:miter;stroke-miterlimit:10;stroke-dasharray:none;stroke-opacity:1"
                 d="m 67.0039,1175.39 5.3984,0 5.4024,-1.19 5.3984,1.19 5.4024,-0.59 5.3984,0.59 5.3984,0 5.4027,-0.59 5.398,0.59 10.801,0 5.398,0.61 5.403,-1.2 6,0.59 5.398,-0.59 5.402,0.59 5.399,0 5.398,-0.59 10.801,0 5.402,0.59 5.399,0.61 6,0 5.398,-1.2 10.801,0 5.402,0.59 5.399,-0.59 5.398,0 5.403,-0.6 5.398,0.6 5.402,0 5.399,0.59 16.199,0 5.402,-0.59 11.399,0 5.398,0.59 5.403,0 5.398,-0.59 10.801,0 5.398,0.59 16.203,0 5.399,-0.59 5.398,0.59 16.203,0 5.399,-0.59 5.398,0.59 10.801,0 5.402,-0.59 39,0 5.399,0.59 5.398,-0.59 5.403,-0.6 5.398,-0.6 5.402,0.6 10.797,0 5.403,0.6 5.398,0.59 5.402,0.61 5.399,0 5.398,-0.61 5.403,0 5.398,0.61 21.602,0 5.398,-0.61 5.402,0.61 5.399,0.6 6,0 5.398,-0.6 5.403,-0.61 21.597,0 5.403,0.61 5.398,0.6 5.402,-0.6 33,0 5.399,-0.61 5.398,-0.59 5.403,0 5.398,-0.6 16.199,0 5.403,0.6 6,0.59 5.398,-0.59 37.801,0 5.398,0.59 37.801,0 5.402,-0.59 5.399,0.59 5.398,-0.59 27,0 6.602,-0.6 21.601,0 5.399,0.6 10.801,0 5.398,0.59 5.402,0 5.399,-0.59 5.398,0 5.403,0.59 5.398,0 5.402,-1.19 5.399,1.19 5.398,0.61 5.403,-0.61 5.398,0.61 5.402,0 5.399,-1.2 5.398,0.59 5.403,0.61 5.398,-0.61 6,0 5.402,0.61 5.399,-0.61 16.199,0 5.402,-0.59 10.797,0 5.403,0.59 5.398,0 5.402,-0.59 5.399,0.59" />
              <path
                 inkscape:connector-curvature="0"
                 id="path10926"
                 style="fill:none;stroke:#0000ff;stroke-width:9;stroke-linecap:butt;stroke-linejoin:miter;stroke-miterlimit:10;stroke-dasharray:27;stroke-dashoffset:0;stroke-opacity:1"
                 d="m 67.0039,1174.8 5.3984,0 5.4024,0.59 32.3983,0 5.402,-0.59 5.399,0.59 5.398,0 5.403,-0.59 11.398,0 5.402,0.59 5.399,-0.59 5.398,0 5.403,0.59 5.398,0 5.402,0.61 5.399,-0.61 6,-0.59 5.398,0 5.403,1.2 5.398,0 5.402,-0.61 21.598,0 5.402,-1.19 27,0 6,1.19 5.399,0.61 5.398,-0.61 5.403,-0.59 5.398,-1.2 5.402,0 5.399,0.6 5.398,1.19 5.403,0 5.398,-0.59 5.402,0.59 5.399,0 5.398,0.61 5.403,-0.61 10.8,0 5.399,-0.59 27,0 5.398,-0.6 5.403,0 5.398,0.6 28.199,0 5.403,-0.6 5.398,-0.6 5.402,0 5.399,1.2 10.801,0 5.398,-0.6 5.402,0.6 5.399,-0.6 32.398,0 5.403,0.6 5.398,0 5.402,0.59 5.399,0 6,-0.59 5.398,-0.6 5.403,-0.6 5.398,0 5.402,0.6 10.797,0 5.403,0.6 43.8,0 5.399,-0.6 5.398,0.6 10.801,0 5.402,0.59 5.399,-0.59 5.398,0 5.403,0.59 16.8,0 5.399,0.61 5.398,-0.61 16.203,0 5.399,-0.59 21.601,0 5.399,0.59 5.398,-0.59 5.403,0.59 5.398,-0.59 5.402,0 5.399,0.59 10.801,0 5.398,-0.59 5.402,0.59 5.399,0 5.398,-0.59 12,0 5.403,-0.6 5.398,0.6 5.402,-0.6 10.797,0 5.403,-0.6 5.398,0 5.402,1.2 5.399,0.59 5.398,-0.59 27,0 5.403,0.59 5.398,-0.59 10.801,0 5.398,0.59 22.203,0 5.399,0.61 5.398,-0.61 27,0 5.403,-0.59 5.398,0.59 10.801,0" />
              <path
                 inkscape:connector-curvature="0"
                 id="path10928"
                 style="fill:none;stroke:#00ff00;stroke-width:9;stroke-linecap:butt;stroke-linejoin:miter;stroke-miterlimit:10;stroke-dasharray:27;stroke-dashoffset:0;stroke-opacity:1"
                 d="m 67.0039,1174.8 5.3984,-0.6 5.4024,1.8 5.3984,-1.2 5.4024,0 5.3984,-0.6 5.3984,0.6 5.4027,0.59 5.398,-0.59 5.402,0 5.399,0.59 5.398,-0.59 5.403,0.59 11.398,0 5.402,-1.19 5.399,0 5.398,0.6 5.403,0.59 5.398,0 5.402,-1.19 11.399,0 5.398,0.6 5.403,0.59 5.398,0 5.402,-0.59 5.399,0.59 5.398,0 5.403,0.61 5.398,-1.2 5.402,0.59 10.797,0 5.403,-0.59 5.398,0 5.402,0.59 11.399,0 5.398,-0.59 5.403,0.59 5.398,0.61 5.402,0.6 5.399,-0.6 5.398,-1.2 5.403,-0.6 10.8,0 5.399,0.6 5.398,0.59 5.403,-1.19 5.398,0.6 5.402,-0.6 5.399,0.6 5.398,0 5.403,0.59 5.398,-0.59 5.402,0.59 5.399,1.21 10.801,0 5.398,-0.6 6.602,0 5.398,-0.61 5.402,-0.59 10.797,0 5.403,0.59 10.8,0 5.399,-0.59 5.398,0 5.403,-0.6 5.398,-0.6 10.801,0 5.398,-0.6 5.403,0.6 5.398,0.6 10.801,0 5.398,0.6 5.403,0.59 5.398,0.61 5.402,0.6 5.399,-0.6 16.801,0 5.398,-0.61 5.402,-1.19 10.797,0 5.403,0.6 5.398,-0.6 5.402,-0.6 10.797,0 6,0.6 32.403,0 5.398,0.6 5.402,0.59 5.399,-0.59 10.801,0 6,-0.6 5.398,1.19 5.402,-0.59 5.399,0 5.398,0.59 5.403,0 5.398,-0.59 5.402,0.59 5.399,-1.19 5.398,0.6 10.801,0 5.402,0.59 87.598,0 5.402,-0.59 5.399,0.59 10.801,0 5.398,-1.19 5.402,-0.6 5.399,1.2 5.398,0 5.403,-0.6 5.398,0.6 5.402,0.59 5.399,-1.19 5.398,0 5.403,0.6 5.398,-0.6 5.402,0 5.399,1.19 5.398,-0.59 5.403,-0.6 5.398,0 6,0.6 5.402,-1.2 5.399,1.2 16.199,0 5.402,1.2 5.399,-0.61 27,0" />
              <path
                 inkscape:connector-curvature="0"
                 id="path10930"
                 style="fill:none;stroke:#00ffff;stroke-width:9;stroke-linecap:butt;stroke-linejoin:miter;stroke-miterlimit:10;stroke-dasharray:27;stroke-dashoffset:0;stroke-opacity:1"
                 d="m 67.0039,1175.39 5.3984,-0.59 5.4024,0.59 5.3984,-0.59 26.9999,0 5.402,0.59 5.399,0 5.398,-0.59 5.403,0.59 6,0 5.398,0.61 5.402,-0.61 5.399,-0.59 5.398,0.59 5.403,0 5.398,0.61 5.402,-0.61 5.399,-0.59 6,0 5.398,0.59 10.801,0 5.402,-0.59 5.399,0 5.398,0.59 16.203,0 5.399,-0.59 16.199,0 5.402,0.59 6,-0.59 5.399,0 5.398,-0.6 5.403,0 5.398,0.6 5.402,0.59 5.399,0 5.398,-0.59 5.403,0 5.398,0.59 10.801,0 5.398,-0.59 10.801,0 5.402,0.59 27,0 5.399,0.61 16.199,0 6.602,-0.61 10.8,0 5.399,-0.59 5.398,0.59 5.403,0.61 5.398,0.6 5.402,-1.21 5.399,-0.59 5.398,0.59 5.403,0 5.398,-0.59 59.402,0 5.399,-1.2 6,0 5.398,0.6 5.403,1.19 5.398,0 5.402,-0.59 5.399,0 5.398,0.59 5.403,-0.59 5.398,-0.6 5.402,0 5.399,-0.6 22.199,0 5.402,0.6 5.399,-0.6 5.398,0.6 5.403,0.6 5.398,0.59 5.402,0.61 5.399,-0.61 5.398,0 5.403,0.61 11.398,0 5.402,-0.61 10.797,0 5.403,-0.59 5.398,0.59 10.801,0 5.398,-0.59 5.403,0 5.398,-0.6 5.402,0 5.399,0.6 5.398,0 5.403,-0.6 16.199,0 5.398,0.6 27,0 6.602,0.59 37.801,0 5.398,0.61 16.199,0 5.403,-0.61 5.398,0.61 5.402,-0.61 16.2,0 5.398,-0.59 5.402,0.59 21.598,0 6,0.61 5.402,-0.61 59.399,0" />
              <path
                 inkscape:connector-curvature="0"
                 id="path10932"
                 style="fill:none;stroke:#000000;stroke-width:4.5;stroke-linecap:butt;stroke-linejoin:miter;stroke-miterlimit:10;stroke-dasharray:none;stroke-opacity:1"
                 d="m 2183.2,278.395 -921,0" />
              <path
                 inkscape:connector-curvature="0"
                 id="path10934"
                 style="fill:none;stroke:#0000ff;stroke-width:4.5;stroke-linecap:butt;stroke-linejoin:miter;stroke-miterlimit:10;stroke-dasharray:none;stroke-opacity:1"
                 d="m 2183.2,278.395 -463.8,0 -5.4,1.203 -5.39,0 -5.41,-1.203 -241.8,0 -6,-1.2 -4.79,1.2 -188.41,0" />
              <path
                 inkscape:connector-curvature="0"
                 id="path10936"
                 style="fill:none;stroke:#ff0000;stroke-width:4.5;stroke-linecap:butt;stroke-linejoin:miter;stroke-miterlimit:10;stroke-dasharray:none;stroke-opacity:1"
                 d="m 2183.2,278.395 -721.8,0 -6,6 -4.79,-3.598 -5.41,-0.602 -5.4,-1.8 -177.6,0" />
              <path
                 inkscape:connector-curvature="0"
                 id="path10938"
                 style="fill:none;stroke:#ff00ff;stroke-width:4.5;stroke-linecap:butt;stroke-linejoin:miter;stroke-miterlimit:10;stroke-dasharray:none;stroke-opacity:1"
                 d="m 2183.2,278.395 -258.59,0 -5.41,0.601 -4.8,0 -5.4,-0.601 -646.8,0" />
              <path
                 inkscape:connector-curvature="0"
                 id="path10940"
                 style="fill:none;stroke:#ffff00;stroke-width:4.5;stroke-linecap:butt;stroke-linejoin:miter;stroke-miterlimit:10;stroke-dasharray:none;stroke-opacity:1"
                 d="m 2183.2,278.395 -921,0" />
              <g
                 transform="scale(10,10)"
                 id="g10942">
                <text
                   id="text10944"
                   style="font-variant:normal;font-weight:normal;font-size:10.80000019px;font-family:Times;-inkscape-font-specification:Times-Roman;writing-mode:lr-tb;fill:#000000;fill-opacity:1;fill-rule:nonzero;stroke:none"
                   transform="matrix(1,0,0,-1,107.2,123.66)">
                  <tspan
                     id="tspan10946"
                     sodipodi:role="line"
                     y="0"
                     x="0 3.5964 8.3915997">(a)</tspan>
                </text>
              </g>
              <path
                 inkscape:connector-curvature="0"
                 id="path10948"
                 style="fill:none;stroke:#ff00ff;stroke-width:9;stroke-linecap:butt;stroke-linejoin:round;stroke-miterlimit:10;stroke-dasharray:none;stroke-opacity:1"
                 d="m 67.0039,226.797 647.3981,0 5.403,8.398 5.398,262.801 5.402,-0.601 5.399,-261 5.398,-9.598 255.602,0" />
              <path
                 inkscape:connector-curvature="0"
                 id="path10950"
                 style="fill:none;stroke:#ff00ff;stroke-width:9;stroke-linecap:butt;stroke-linejoin:round;stroke-miterlimit:10;stroke-dasharray:none;stroke-opacity:1"
                 d="m 2183.2,278.395 -603,0 -6.59,-21.598 -4.21,21.598 -307.2,0" />
            </g>
          </g>
        </g>
      </g>
    </g>
  </g>
</svg>
